999
dxfrw 0.6.3
  0
SECTION
  2
HEADER
  9
$ACADVER
  1
AC1021
  9
$DWGCODEPAGE
  3
ANSI_1252
  9
$INSBASE
 10
0
 20
0
 30
0
  9
$EXTMIN
 10
1.418978622318335
 20
82.79383964871334
 30
0
  9
$EXTMAX
 10
233.2382786223183
 20
227.3229
 30
0
  9
$LIMMIN
 10
0
 20
0
  9
$LIMMAX
 10
420
 20
297
  9
$ORTHOMODE
 70
    0
  9
$REGENMODE
 70
    1
  9
$FILLMODE
 70
    1
  9
$QTEXTMODE
 70
    0
  9
$MIRRTEXT
 70
    0
  9
$LTSCALE
 40
1
  9
$ATTMODE
 70
    0
  9
$TEXTSIZE
 40
2.5
  9
$TRACEWID
 40
15.68
  9
$TEXTSTYLE
  7
STANDARD
  9
$CLAYER
  8
0
  9
$CELTYPE
  6
BYLAYER
  9
$CECOLOR
 62
  256
  9
$CELTSCALE
 40
1
  9
$DISPSILH
 70
    0
  9
$DIMSCALE
 40
2.5
  9
$DIMASZ
 40
2.5
  9
$DIMEXO
 40
0.625
  9
$DIMDLI
 40
3.75
  9
$DIMRND
 40
0
  9
$DIMDLE
 40
0
  9
$DIMEXE
 40
1.25
  9
$DIMTP
 40
0
  9
$DIMTM
 40
0
  9
$DIMTXT
 40
2.5
  9
$DIMCEN
 40
2.5
  9
$DIMTSZ
 40
0
  9
$DIMTOL
 70
    0
  9
$DIMLIM
 70
    0
  9
$DIMTIH
 70
    0
  9
$DIMTOH
 70
    0
  9
$DIMSE1
 70
    0
  9
$DIMSE2
 70
    0
  9
$DIMTAD
 70
    1
  9
$DIMZIN
 70
    8
  9
$DIMBLK
  1

  9
$DIMASO
 70
    1
  9
$DIMSHO
 70
    1
  9
$DIMPOST
  1

  9
$DIMAPOST
  1

  9
$DIMALT
 70
    0
  9
$DIMALTD
 70
    3
  9
$DIMALTF
 40
0.03937
  9
$DIMLFAC
 40
1
  9
$DIMTOFL
 70
    1
  9
$DIMTVP
 40
0
  9
$DIMTIX
 70
    0
  9
$DIMSOXD
 70
    0
  9
$DIMSAH
 70
    0
  9
$DIMBLK1
  1

  9
$DIMBLK2
  1

  9
$DIMSTYLE
  2
Standard
  9
$DIMCLRD
 70
    0
  9
$DIMCLRE
 70
    0
  9
$DIMCLRT
 70
    0
  9
$DIMTFAC
 40
1
  9
$DIMGAP
 40
0.625
  9
$DIMJUST
 70
    0
  9
$DIMSD1
 70
    0
  9
$DIMSD2
 70
    0
  9
$DIMTOLJ
 70
    0
  9
$DIMTZIN
 70
    8
  9
$DIMALTZ
 70
    0
  9
$DIMALTTZ
 70
    0
  9
$DIMUPT
 70
    0
  9
$DIMDEC
 70
    2
  9
$DIMTDEC
 70
    2
  9
$DIMALTU
 70
    2
  9
$DIMALTTD
 70
    3
  9
$DIMTXSTY
  7
STANDARD
  9
$DIMAUNIT
 70
    0
  9
$DIMADEC
 70
    0
  9
$DIMALTRND
 40
0
  9
$DIMAZIN
 70
    0
  9
$DIMDSEP
 70
   44
  9
$DIMATFIT
 70
    3
  9
$DIMFRAC
 70
    0
  9
$DIMLDRBLK
  1
STANDARD
  9
$DIMLUNIT
 70
    2
  9
$DIMLWD
 70
   -2
  9
$DIMLWE
 70
   -2
  9
$DIMTMOVE
 70
    0
  9
$DIMFXL
 40
1
  9
$DIMFXLON
 70
    0
  9
$DIMJOGANG
 40
0.7854
  9
$DIMTFILL
 70
    0
  9
$DIMTFILLCLR
 70
    0
  9
$DIMARCSYM
 70
    0
  9
$DIMLTYPE
  6

  9
$DIMLTEX1
  6

  9
$DIMLTEX2
  6

  9
$LUNITS
 70
    2
  9
$LUPREC
 70
    4
  9
$SKETCHINC
 40
1
  9
$FILLETRAD
 40
0
  9
$AUNITS
 70
    0
  9
$AUPREC
 70
    2
  9
$MENU
  1
.
  9
$ELEVATION
 40
0
  9
$PELEVATION
 40
0
  9
$THICKNESS
 40
0
  9
$LIMCHECK
 70
    0
  9
$CHAMFERA
 40
0
  9
$CHAMFERB
 40
0
  9
$CHAMFERC
 40
0
  9
$CHAMFERD
 40
0
  9
$SKPOLY
 70
    0
  9
$USRTIMER
 70
    1
  9
$ANGBASE
 50
0
  9
$ANGDIR
 70
    0
  9
$PDMODE
 70
   34
  9
$PDSIZE
 40
0
  9
$PLINEWID
 40
0
  9
$SPLFRAME
 70
    0
  9
$SPLINETYPE
 70
    2
  9
$SPLINESEGS
 70
    8
  9
$HANDSEED
  5
20000
  9
$SURFTAB1
 70
    6
  9
$SURFTAB2
 70
    6
  9
$SURFTYPE
 70
    6
  9
$SURFU
 70
    6
  9
$SURFV
 70
    6
  9
$UCSBASE
  2

  9
$UCSNAME
  2

  9
$UCSORG
 10
0
 20
0
 30
0
  9
$UCSXDIR
 10
1
 20
0
 30
0
  9
$UCSYDIR
 10
0
 20
1
 30
0
  9
$UCSORTHOREF
  2

  9
$UCSORTHOVIEW
 70
    0
  9
$UCSORGTOP
 10
0
 20
0
 30
0
  9
$UCSORGBOTTOM
 10
0
 20
0
 30
0
  9
$UCSORGLEFT
 10
0
 20
0
 30
0
  9
$UCSORGRIGHT
 10
0
 20
0
 30
0
  9
$UCSORGFRONT
 10
0
 20
0
 30
0
  9
$UCSORGBACK
 10
0
 20
0
 30
0
  9
$PUCSBASE
  2

  9
$PUCSNAME
  2

  9
$PUCSORG
 10
0
 20
0
 30
0
  9
$PUCSXDIR
 10
1
 20
0
 30
0
  9
$PUCSYDIR
 10
0
 20
1
 30
0
  9
$PUCSORTHOREF
  2

  9
$PUCSORTHOVIEW
 70
    0
  9
$PUCSORGTOP
 10
0
 20
0
 30
0
  9
$PUCSORGBOTTOM
 10
0
 20
0
 30
0
  9
$PUCSORGLEFT
 10
0
 20
0
 30
0
  9
$PUCSORGRIGHT
 10
0
 20
0
 30
0
  9
$PUCSORGFRONT
 10
0
 20
0
 30
0
  9
$PUCSORGBACK
 10
0
 20
0
 30
0
  9
$USERI1
 70
    0
  9
$USERI2
 70
    0
  9
$USERI3
 70
    0
  9
$USERI4
 70
    0
  9
$USERI5
 70
    0
  9
$USERR1
 40
0
  9
$USERR2
 40
0
  9
$USERR3
 40
0
  9
$USERR4
 40
0
  9
$USERR5
 40
0
  9
$WORLDVIEW
 70
    1
  9
$SHADEDGE
 70
    3
  9
$SHADEDIF
 70
   70
  9
$TILEMODE
 70
    1
  9
$MAXACTVP
 70
   64
  9
$PINSBASE
 10
0
 20
0
 30
0
  9
$PLIMCHECK
 70
    0
  9
$PEXTMIN
 10
0
 20
0
 30
0
  9
$PEXTMAX
 10
0
 20
0
 30
0
  9
$GRIDMODE
 70
    1
  9
$SNAPSTYLE
 70
    0
  9
$PLIMMIN
 10
0
 20
0
  9
$PLIMMAX
 10
0.2794
 20
0.2159
  9
$UNITMODE
 70
    0
  9
$VISRETAIN
 70
    1
  9
$PLINEGEN
 70
    0
  9
$PSLTSCALE
 70
    1
  9
$TREEDEPTH
 70
 3020
  9
$CMLSTYLE
  2
Standard
  9
$CMLJUST
 70
    0
  9
$CMLSCALE
 40
20
  9
$PROXYGRAPHICS
 70
    1
  9
$MEASUREMENT
 70
    1
  9
$CELWEIGHT
370
   -1
  9
$ENDCAPS
280
    0
  9
$JOINSTYLE
280
    0
  9
$LWDISPLAY
290
    0
  9
$INSUNITS
 70
    4
  9
$HYPERLINKBASE
  1

  9
$STYLESHEET
  1

  9
$XEDIT
290
    1
  9
$CEPSNTYPE
380
    0
  9
$PSTYLEMODE
290
    1
  9
$EXTNAMES
290
    1
  9
$PSVPSCALE
 40
1
  9
$OLESTARTUP
290
    0
  9
$SORTENTS
280
  127
  9
$INDEXCTL
280
    0
  9
$HIDETEXT
280
    1
  9
$XCLIPFRAME
290
    0
  9
$HALOGAP
280
    0
  9
$OBSCOLOR
 70
  257
  9
$OBSLTYPE
280
    0
  9
$INTERSECTIONDISPLAY
280
    0
  9
$INTERSECTIONCOLOR
 70
  257
  9
$DIMASSOC
280
    1
  9
$PROJECTNAME
  1

  9
$CAMERADISPLAY
290
    0
  9
$LENSLENGTH
 40
50
  9
$CAMERAHEIGHT
 40
0
  9
$STEPSPERSEC
 40
2
  9
$STEPSIZE
 40
50
  9
$3DDWFPREC
 40
2
  9
$PSOLWIDTH
 40
5
  9
$PSOLHEIGHT
 40
80
  9
$LOFTANG1
 40
1.570796326794897
  9
$LOFTANG2
 40
1.570796326794897
  9
$LOFTMAG1
 40
0
  9
$LOFTMAG2
 40
0
  9
$LOFTPARAM
 70
    7
  9
$LOFTNORMALS
280
    1
  9
$LATITUDE
 40
1
  9
$LONGITUDE
 40
1
  9
$NORTHDIRECTION
 40
0
  9
$TIMEZONE
 70
-8000
  9
$LIGHTGLYPHDISPLAY
280
    1
  9
$TILEMODELIGHTSYNCH
280
    1
  9
$SOLIDHIST
280
    1
  9
$SHOWHIST
280
    1
  9
$DWFFRAME
280
    2
  9
$DGNFRAME
280
    0
  9
$REALWORLDSCALE
290
    1
  9
$INTERFERECOLOR
 62
    1
  9
$CSHADOW
280
    0
  9
$SHADOWPLANELOCATION
 40
0
  0
ENDSEC
  0
SECTION
  2
CLASSES
  0
ENDSEC
  0
SECTION
  2
TABLES
  0
TABLE
  2
VPORT
  5
8
330
0
100
AcDbSymbolTable
 70
    1
  0
VPORT
  5
31
330
2
100
AcDbSymbolTableRecord
100
AcDbViewportTableRecord
  2
*ACTIVE
 70
    0
 10
0
 20
0
 11
1
 21
1
 12
171.5174270769984
 22
173.6091030169619
 13
0
 23
0
 14
10
 24
10
 15
10
 25
10
 16
0
 26
0
 36
1
 17
0
 27
0
 37
0
 40
335.086485582136
 41
1.203495630461923
 42
50
 43
0
 44
0
 50
0
 51
0
 71
    0
 72
  100
 73
    1
 74
    3
 75
    0
 76
    1
 77
    0
 78
    0
281
    0
 65
    1
110
0
120
0
130
0
111
1
121
0
131
0
112
0
122
1
132
0
 79
    0
146
0
348
10020
 60
    7
 61
    5
292
1
282
    1
141
0
142
0
 63
  250
421
3358443
  0
ENDTAB
  0
TABLE
  2
LTYPE
  5
5
330
0
100
AcDbSymbolTable
 70
    4
  0
LTYPE
  5
14
330
5
100
AcDbSymbolTableRecord
100
AcDbLinetypeTableRecord
  2
ByBlock
 70
    0
  3

 72
   65
 73
    0
 40
0
  0
LTYPE
  5
15
330
5
100
AcDbSymbolTableRecord
100
AcDbLinetypeTableRecord
  2
ByLayer
 70
    0
  3

 72
   65
 73
    0
 40
0
  0
LTYPE
  5
16
330
5
100
AcDbSymbolTableRecord
100
AcDbLinetypeTableRecord
  2
Continuous
 70
    0
  3
Solid line
 72
   65
 73
    0
 40
0
  0
LTYPE
  5
32
330
5
100
AcDbSymbolTableRecord
100
AcDbLinetypeTableRecord
  2
DOT
 70
    0
  3
Dot . . . . . . . . . . . . . . . . . . . . . .
 72
   65
 73
    2
 40
6.35
 49
0
 74
    0
 49
-6.35
 74
    0
  0
LTYPE
  5
33
330
5
100
AcDbSymbolTableRecord
100
AcDbLinetypeTableRecord
  2
DOTTINY
 70
    0
  3
Dot (.15x) .....................................
 72
   65
 73
    2
 40
0.9525
 49
0
 74
    0
 49
-0.9525
 74
    0
  0
LTYPE
  5
34
330
5
100
AcDbSymbolTableRecord
100
AcDbLinetypeTableRecord
  2
DOT2
 70
    0
  3
Dot (.5x) .....................................
 72
   65
 73
    2
 40
3.175
 49
0
 74
    0
 49
-3.175
 74
    0
  0
LTYPE
  5
35
330
5
100
AcDbSymbolTableRecord
100
AcDbLinetypeTableRecord
  2
DOTX2
 70
    0
  3
Dot (2x) .  .  .  .  .  .  .  .  .  .  .  .  .
 72
   65
 73
    2
 40
12.7
 49
0
 74
    0
 49
-12.7
 74
    0
  0
LTYPE
  5
36
330
5
100
AcDbSymbolTableRecord
100
AcDbLinetypeTableRecord
  2
DASHED
 70
    0
  3
Dashed _ _ _ _ _ _ _ _ _ _ _ _ _ _ _ _ _
 72
   65
 73
    2
 40
19.05
 49
12.7
 74
    0
 49
-6.35
 74
    0
  0
LTYPE
  5
37
330
5
100
AcDbSymbolTableRecord
100
AcDbLinetypeTableRecord
  2
DASHEDTINY
 70
    0
  3
Dashed (.15x) _ _ _ _ _ _ _ _ _ _ _ _ _ _ _ _ _
 72
   65
 73
    2
 40
2.8575
 49
1.905
 74
    0
 49
-0.9525
 74
    0
  0
LTYPE
  5
38
330
5
100
AcDbSymbolTableRecord
100
AcDbLinetypeTableRecord
  2
DASHED2
 70
    0
  3
Dashed (.5x) _ _ _ _ _ _ _ _ _ _ _ _ _ _ _ _ _
 72
   65
 73
    2
 40
9.524999999999999
 49
6.35
 74
    0
 49
-3.175
 74
    0
  0
LTYPE
  5
39
330
5
100
AcDbSymbolTableRecord
100
AcDbLinetypeTableRecord
  2
DASHEDX2
 70
    0
  3
Dashed (2x) ____  ____  ____  ____  ____  ___
 72
   65
 73
    2
 40
38.09999999999999
 49
25.4
 74
    0
 49
-12.7
 74
    0
  0
LTYPE
  5
3A
330
5
100
AcDbSymbolTableRecord
100
AcDbLinetypeTableRecord
  2
DASHDOT
 70
    0
  3
Dash dot __ . __ . __ . __ . __ . __ . __ . __
 72
   65
 73
    4
 40
25.4
 49
12.7
 74
    0
 49
-6.35
 74
    0
 49
0
 74
    0
 49
-6.35
 74
    0
  0
LTYPE
  5
3B
330
5
100
AcDbSymbolTableRecord
100
AcDbLinetypeTableRecord
  2
DASHDOTTINY
 70
    0
  3
Dash dot (.15x) _._._._._._._._._._._._._._._.
 72
   65
 73
    4
 40
3.81
 49
1.905
 74
    0
 49
-0.9525
 74
    0
 49
0
 74
    0
 49
-0.9525
 74
    0
  0
LTYPE
  5
3C
330
5
100
AcDbSymbolTableRecord
100
AcDbLinetypeTableRecord
  2
DASHDOT2
 70
    0
  3
Dash dot (.5x) _._._._._._._._._._._._._._._.
 72
   65
 73
    4
 40
12.7
 49
6.35
 74
    0
 49
-3.175
 74
    0
 49
0
 74
    0
 49
-3.175
 74
    0
  0
LTYPE
  5
3D
330
5
100
AcDbSymbolTableRecord
100
AcDbLinetypeTableRecord
  2
DASHDOTX2
 70
    0
  3
Dash dot (2x) ____  .  ____  .  ____  .  ___
 72
   65
 73
    4
 40
50.8
 49
25.4
 74
    0
 49
-12.7
 74
    0
 49
0
 74
    0
 49
-12.7
 74
    0
  0
LTYPE
  5
3E
330
5
100
AcDbSymbolTableRecord
100
AcDbLinetypeTableRecord
  2
DIVIDE
 70
    0
  3
Divide ____ . . ____ . . ____ . . ____ . . ____
 72
   65
 73
    6
 40
31.75
 49
12.7
 74
    0
 49
-6.35
 74
    0
 49
0
 74
    0
 49
-6.35
 74
    0
 49
0
 74
    0
 49
-6.35
 74
    0
  0
LTYPE
  5
3F
330
5
100
AcDbSymbolTableRecord
100
AcDbLinetypeTableRecord
  2
DIVIDETINY
 70
    0
  3
Divide (.15x) __..__..__..__..__..__..__..__.._
 72
   65
 73
    6
 40
4.7625
 49
1.905
 74
    0
 49
-0.9525
 74
    0
 49
0
 74
    0
 49
-0.9525
 74
    0
 49
0
 74
    0
 49
-0.9525
 74
    0
  0
LTYPE
  5
40
330
5
100
AcDbSymbolTableRecord
100
AcDbLinetypeTableRecord
  2
DIVIDE2
 70
    0
  3
Divide (.5x) __..__..__..__..__..__..__..__.._
 72
   65
 73
    6
 40
15.875
 49
6.35
 74
    0
 49
-3.175
 74
    0
 49
0
 74
    0
 49
-3.175
 74
    0
 49
0
 74
    0
 49
-3.175
 74
    0
  0
LTYPE
  5
41
330
5
100
AcDbSymbolTableRecord
100
AcDbLinetypeTableRecord
  2
DIVIDEX2
 70
    0
  3
Divide (2x) ________  .  .  ________  .  .  _
 72
   65
 73
    6
 40
63.5
 49
25.4
 74
    0
 49
-12.7
 74
    0
 49
0
 74
    0
 49
-12.7
 74
    0
 49
0
 74
    0
 49
-12.7
 74
    0
  0
LTYPE
  5
42
330
5
100
AcDbSymbolTableRecord
100
AcDbLinetypeTableRecord
  2
BORDER
 70
    0
  3
Border __ __ . __ __ . __ __ . __ __ . __ __ .
 72
   65
 73
    6
 40
44.45
 49
12.7
 74
    0
 49
-6.35
 74
    0
 49
12.7
 74
    0
 49
-6.35
 74
    0
 49
0
 74
    0
 49
-6.35
 74
    0
  0
LTYPE
  5
43
330
5
100
AcDbSymbolTableRecord
100
AcDbLinetypeTableRecord
  2
BORDERTINY
 70
    0
  3
Border (.15x) __.__.__.__.__.__.__.__.__.__.__.
 72
   65
 73
    6
 40
6.6675
 49
1.905
 74
    0
 49
-0.9525
 74
    0
 49
1.905
 74
    0
 49
-0.9525
 74
    0
 49
0
 74
    0
 49
-0.9525
 74
    0
  0
LTYPE
  5
44
330
5
100
AcDbSymbolTableRecord
100
AcDbLinetypeTableRecord
  2
BORDER2
 70
    0
  3
Border (.5x) __.__.__.__.__.__.__.__.__.__.__.
 72
   65
 73
    6
 40
22.225
 49
6.35
 74
    0
 49
-3.175
 74
    0
 49
6.35
 74
    0
 49
-3.175
 74
    0
 49
0
 74
    0
 49
-3.175
 74
    0
  0
LTYPE
  5
45
330
5
100
AcDbSymbolTableRecord
100
AcDbLinetypeTableRecord
  2
BORDERX2
 70
    0
  3
Border (2x) ____  ____  .  ____  ____  .  ___
 72
   65
 73
    6
 40
88.89999999999999
 49
25.4
 74
    0
 49
-12.7
 74
    0
 49
25.4
 74
    0
 49
-12.7
 74
    0
 49
0
 74
    0
 49
-12.7
 74
    0
  0
LTYPE
  5
46
330
5
100
AcDbSymbolTableRecord
100
AcDbLinetypeTableRecord
  2
CENTER
 70
    0
  3
Center ____ _ ____ _ ____ _ ____ _ ____ _ ____
 72
   65
 73
    4
 40
50.8
 49
31.75
 74
    0
 49
-6.35
 74
    0
 49
6.35
 74
    0
 49
-6.35
 74
    0
  0
LTYPE
  5
47
330
5
100
AcDbSymbolTableRecord
100
AcDbLinetypeTableRecord
  2
CENTERTINY
 70
    0
  3
Center (.15x) ___ _ ___ _ ___ _ ___ _ ___ _ ___
 72
   65
 73
    4
 40
7.62
 49
4.7625
 74
    0
 49
-0.9525
 74
    0
 49
0.9525
 74
    0
 49
-0.9525
 74
    0
  0
LTYPE
  5
48
330
5
100
AcDbSymbolTableRecord
100
AcDbLinetypeTableRecord
  2
CENTER2
 70
    0
  3
Center (.5x) ___ _ ___ _ ___ _ ___ _ ___ _ ___
 72
   65
 73
    4
 40
28.575
 49
19.05
 74
    0
 49
-3.175
 74
    0
 49
3.175
 74
    0
 49
-3.175
 74
    0
  0
LTYPE
  5
49
330
5
100
AcDbSymbolTableRecord
100
AcDbLinetypeTableRecord
  2
CENTERX2
 70
    0
  3
Center (2x) ________  __  ________  __  _____
 72
   65
 73
    4
 40
101.6
 49
63.5
 74
    0
 49
-12.7
 74
    0
 49
12.7
 74
    0
 49
-12.7
 74
    0
  0
ENDTAB
  0
TABLE
  2
LAYER
  5
2
330
0
100
AcDbSymbolTable
 70
    1
  0
LAYER
  5
10
330
2
100
AcDbSymbolTableRecord
100
AcDbLayerTableRecord
  2
0
 70
    0
 62
    7
  6
CONTINUOUS
370
   70
390
F
  0
LAYER
  5
4A
330
2
100
AcDbSymbolTableRecord
100
AcDbLayerTableRecord
  2
ref
 70
    0
 62
    2
  6
CONTINUOUS
370
    0
390
F
  0
ENDTAB
  0
TABLE
  2
STYLE
  5
3
330
0
100
AcDbSymbolTable
 70
    3
  0
STYLE
  5
4B
330
2
100
AcDbSymbolTableRecord
100
AcDbTextStyleTableRecord
  2
Standard
 70
    0
 40
0
 41
1
 50
0
 71
    0
 42
1
  3
txt
  4

  0
ENDTAB
  0
TABLE
  2
VIEW
  5
6
330
0
100
AcDbSymbolTable
 70
    0
  0
ENDTAB
  0
TABLE
  2
UCS
  5
7
330
0
100
AcDbSymbolTable
 70
    0
  0
ENDTAB
  0
TABLE
  2
APPID
  5
9
330
0
100
AcDbSymbolTable
 70
    1
  0
APPID
  5
12
330
9
100
AcDbSymbolTableRecord
100
AcDbRegAppTableRecord
  2
ACAD
 70
    0
  0
APPID
  5
4C
330
9
100
AcDbSymbolTableRecord
100
AcDbRegAppTableRecord
  2
LibreCad
 70
    0
  0
ENDTAB
  0
TABLE
  2
DIMSTYLE
  5
A
330
0
100
AcDbSymbolTable
 70
    1
100
AcDbDimStyleTable
 71
    1
  0
DIMSTYLE
105
4D
330
A
100
AcDbSymbolTableRecord
100
AcDbDimStyleTableRecord
  2
Standard
 70
    0
 40
2.5
 41
2.5
 42
0.625
 43
0.38
 44
1.25
 45
0
 46
0
 47
0
 48
0
 49
1
140
2.5
141
0.09
142
0
143
25.4
144
1
145
0
146
1
147
0.625
148
0
 71
    0
 72
    0
 73
    0
 74
    1
 75
    0
 76
    0
 77
    0
 78
    8
 79
    0
170
    0
171
    2
172
    0
173
    0
174
    0
175
    0
176
    0
177
    0
178
    0
179
    0
271
    2
272
    4
273
    2
274
    2
275
    0
276
    0
277
    2
278
   44
279
    0
280
    0
281
    0
282
    0
283
    1
284
    0
285
    0
286
    0
288
    0
289
    3
340
STANDARD
341

371
   -2
372
   -2
  0
ENDTAB
  0
TABLE
  2
BLOCK_RECORD
  5
1
330
0
100
AcDbSymbolTable
 70
    2
  0
BLOCK_RECORD
  5
1F
330
1
100
AcDbSymbolTableRecord
100
AcDbBlockTableRecord
  2
*Model_Space
 70
    0
280
    1
281
    0
  0
BLOCK_RECORD
  5
1E
330
1
100
AcDbSymbolTableRecord
100
AcDbBlockTableRecord
  2
*Paper_Space
 70
    0
280
    1
281
    0
  0
ENDTAB
  0
ENDSEC
  0
SECTION
  2
BLOCKS
  0
BLOCK
  5
20
330
1F
100
AcDbEntity
  8
0
100
AcDbBlockBegin
  2
*Model_Space
 70
    0
 10
0
 20
0
 30
0
  3
*Model_Space
  1

  0
ENDBLK
  5
21
330
1F
100
AcDbEntity
  8
0
100
AcDbBlockEnd
  0
BLOCK
  5
1C
330
1B
100
AcDbEntity
  8
0
100
AcDbBlockBegin
  2
*Paper_Space
 70
    0
 10
0
 20
0
 30
0
  3
*Paper_Space
  1

  0
ENDBLK
  5
1D
330
1F
100
AcDbEntity
  8
0
100
AcDbBlockEnd
  0
ENDSEC
  0
SECTION
  2
ENTITIES
  0
LINE
  5
4E
100
AcDbEntity
  8
0
  6
ByLayer
 62
  256
370
   -1
100
AcDbLine
 10
21.15528118377785
 20
100.6940910839556
 11
21.65051936155563
 21
100.9417150839556
  0
LINE
  5
4F
100
AcDbEntity
  8
0
  6
ByLayer
 62
  256
370
   -1
100
AcDbLine
 10
21.65051936155563
 20
100.9417150839556
 11
22.39337807266674
 21
101.6845697506223
  0
LINE
  5
50
100
AcDbEntity
  8
0
  6
ByLayer
 62
  256
370
   -1
100
AcDbLine
 10
22.39337807266674
 20
101.6845697506223
 11
22.39337807266674
 21
96.48456975062227
  0
LINE
  5
51
100
AcDbEntity
  8
0
  6
ByLayer
 62
  256
370
   -1
100
AcDbLine
 10
160.047551233808
 20
100.9417150839556
 11
159.7999330115858
 21
101.4369515284001
  0
LINE
  5
52
100
AcDbEntity
  8
0
  6
ByLayer
 62
  256
370
   -1
100
AcDbLine
 10
159.7999330115858
 20
101.4369515284001
 11
159.0570725671413
 21
101.6845697506223
  0
LINE
  5
53
100
AcDbEntity
  8
0
  6
ByLayer
 62
  256
370
   -1
100
AcDbLine
 10
159.0570725671413
 20
101.6845697506223
 11
158.5618361226969
 21
101.6845697506223
  0
LINE
  5
54
100
AcDbEntity
  8
0
  6
ByLayer
 62
  256
370
   -1
100
AcDbLine
 10
158.5618361226969
 20
101.6845697506223
 11
157.8189756782524
 21
101.4369515284001
  0
LINE
  5
55
100
AcDbEntity
  8
0
  6
ByLayer
 62
  256
370
   -1
100
AcDbLine
 10
157.8189756782524
 20
101.4369515284001
 11
157.3237398115858
 21
100.6940910839556
  0
LINE
  5
56
100
AcDbEntity
  8
0
  6
ByLayer
 62
  256
370
   -1
100
AcDbLine
 10
157.3237398115858
 20
100.6940910839556
 11
157.0761210115858
 21
99.4559999728445
  0
LINE
  5
57
100
AcDbEntity
  8
0
  6
ByLayer
 62
  256
370
   -1
100
AcDbLine
 10
157.0761210115858
 20
99.4559999728445
 11
157.0761210115858
 21
98.2179030839556
  0
LINE
  5
58
100
AcDbEntity
  8
0
  6
ByLayer
 62
  256
370
   -1
100
AcDbLine
 10
157.0761210115858
 20
98.2179030839556
 11
157.3237398115858
 21
97.22742441728893
  0
LINE
  5
59
100
AcDbEntity
  8
0
  6
ByLayer
 62
  256
370
   -1
100
AcDbLine
 10
157.3237398115858
 20
97.22742441728893
 11
157.8189756782524
 21
96.73218855062227
  0
LINE
  5
5A
100
AcDbEntity
  8
0
  6
ByLayer
 62
  256
370
   -1
100
AcDbLine
 10
157.8189756782524
 20
96.73218855062227
 11
158.5618361226969
 21
96.48456975062227
  0
LINE
  5
5B
100
AcDbEntity
  8
0
  6
ByLayer
 62
  256
370
   -1
100
AcDbLine
 10
158.5618361226969
 20
96.48456975062227
 11
158.8094543449191
 21
96.48456975062227
  0
LINE
  5
5C
100
AcDbEntity
  8
0
  6
ByLayer
 62
  256
370
   -1
100
AcDbLine
 10
158.8094543449191
 20
96.48456975062227
 11
159.5523090115858
 21
96.73218855062227
  0
LINE
  5
5D
100
AcDbEntity
  8
0
  6
ByLayer
 62
  256
370
   -1
100
AcDbLine
 10
159.5523090115858
 20
96.73218855062227
 11
160.047551233808
 21
97.22742441728893
  0
LINE
  5
5E
100
AcDbEntity
  8
0
  6
ByLayer
 62
  256
370
   -1
100
AcDbLine
 10
160.047551233808
 20
97.22742441728893
 11
160.2951694560302
 21
97.97028486173339
  0
LINE
  5
5F
100
AcDbEntity
  8
0
  6
ByLayer
 62
  256
370
   -1
100
AcDbLine
 10
160.2951694560302
 20
97.97028486173339
 11
160.2951694560302
 21
98.2179030839556
  0
LINE
  5
60
100
AcDbEntity
  8
0
  6
ByLayer
 62
  256
370
   -1
100
AcDbLine
 10
160.2951694560302
 20
98.2179030839556
 11
160.047551233808
 21
98.96075775062226
  0
LINE
  5
61
100
AcDbEntity
  8
0
  6
ByLayer
 62
  256
370
   -1
100
AcDbLine
 10
160.047551233808
 20
98.96075775062226
 11
159.5523090115858
 21
99.4559999728445
  0
LINE
  5
62
100
AcDbEntity
  8
0
  6
ByLayer
 62
  256
370
   -1
100
AcDbLine
 10
159.5523090115858
 20
99.4559999728445
 11
158.8094543449191
 21
99.70361819506672
  0
LINE
  5
63
100
AcDbEntity
  8
0
  6
ByLayer
 62
  256
370
   -1
100
AcDbLine
 10
158.8094543449191
 20
99.70361819506672
 11
158.5618361226969
 21
99.70361819506672
  0
LINE
  5
64
100
AcDbEntity
  8
0
  6
ByLayer
 62
  256
370
   -1
100
AcDbLine
 10
158.5618361226969
 20
99.70361819506672
 11
157.8189756782524
 21
99.4559999728445
  0
LINE
  5
65
100
AcDbEntity
  8
0
  6
ByLayer
 62
  256
370
   -1
100
AcDbLine
 10
157.8189756782524
 20
99.4559999728445
 11
157.3237398115858
 21
98.96075775062226
  0
LINE
  5
66
100
AcDbEntity
  8
0
  6
ByLayer
 62
  256
370
   -1
100
AcDbLine
 10
157.3237398115858
 20
98.96075775062226
 11
157.0761210115858
 21
98.2179030839556
  0
LINE
  5
67
100
AcDbEntity
  8
0
  6
ByLayer
 62
  256
370
   -1
100
AcDbLine
 10
187.040763707595
 20
101.6845697506223
 11
184.564575707595
 21
96.48456975062227
  0
LINE
  5
68
100
AcDbEntity
  8
0
  6
ByLayer
 62
  256
370
   -1
100
AcDbLine
 10
183.5740970409283
 20
101.6845697506223
 11
187.040763707595
 21
101.6845697506223
  0
LINE
  5
69
100
AcDbEntity
  8
0
  6
ByLayer
 62
  256
370
   -1
100
AcDbLine
 10
132.4569528860501
 20
101.6845697506223
 11
129.9807608416058
 21
101.6845697506223
  0
LINE
  5
6A
100
AcDbEntity
  8
0
  6
ByLayer
 62
  256
370
   -1
100
AcDbLine
 10
129.9807608416058
 20
101.6845697506223
 11
129.733141463828
 21
99.4559999728445
  0
LINE
  5
6B
100
AcDbEntity
  8
0
  6
ByLayer
 62
  256
370
   -1
100
AcDbLine
 10
129.733141463828
 20
99.4559999728445
 11
129.9807608416058
 21
99.70361819506672
  0
LINE
  5
6C
100
AcDbEntity
  8
0
  6
ByLayer
 62
  256
370
   -1
100
AcDbLine
 10
129.9807608416058
 20
99.70361819506672
 11
130.7236195527169
 21
99.95123641728894
  0
LINE
  5
6D
100
AcDbEntity
  8
0
  6
ByLayer
 62
  256
370
   -1
100
AcDbLine
 10
130.7236195527169
 20
99.95123641728894
 11
131.4664742193836
 21
99.95123641728894
  0
LINE
  5
6E
100
AcDbEntity
  8
0
  6
ByLayer
 62
  256
370
   -1
100
AcDbLine
 10
131.4664742193836
 20
99.95123641728894
 11
132.2093346638279
 21
99.70361819506672
  0
LINE
  5
6F
100
AcDbEntity
  8
0
  6
ByLayer
 62
  256
370
   -1
100
AcDbLine
 10
132.2093346638279
 20
99.70361819506672
 11
132.7045711082723
 21
99.20838175062228
  0
LINE
  5
70
100
AcDbEntity
  8
0
  6
ByLayer
 62
  256
370
   -1
100
AcDbLine
 10
132.7045711082723
 20
99.20838175062228
 11
132.9521893304947
 21
98.46552130617782
  0
LINE
  5
71
100
AcDbEntity
  8
0
  6
ByLayer
 62
  256
370
   -1
100
AcDbLine
 10
132.9521893304947
 20
98.46552130617782
 11
132.9521893304947
 21
97.97028486173339
  0
LINE
  5
72
100
AcDbEntity
  8
0
  6
ByLayer
 62
  256
370
   -1
100
AcDbLine
 10
132.9521893304947
 20
97.97028486173339
 11
132.7045711082723
 21
97.22742441728893
  0
LINE
  5
73
100
AcDbEntity
  8
0
  6
ByLayer
 62
  256
370
   -1
100
AcDbLine
 10
132.7045711082723
 20
97.22742441728893
 11
132.2093346638279
 21
96.73218855062227
  0
LINE
  5
74
100
AcDbEntity
  8
0
  6
ByLayer
 62
  256
370
   -1
100
AcDbLine
 10
132.2093346638279
 20
96.73218855062227
 11
131.4664742193836
 21
96.48456975062227
  0
LINE
  5
75
100
AcDbEntity
  8
0
  6
ByLayer
 62
  256
370
   -1
100
AcDbLine
 10
131.4664742193836
 20
96.48456975062227
 11
130.7236195527169
 21
96.48456975062227
  0
LINE
  5
76
100
AcDbEntity
  8
0
  6
ByLayer
 62
  256
370
   -1
100
AcDbLine
 10
130.7236195527169
 20
96.48456975062227
 11
129.9807608416058
 21
96.73218855062227
  0
LINE
  5
77
100
AcDbEntity
  8
0
  6
ByLayer
 62
  256
370
   -1
100
AcDbLine
 10
129.9807608416058
 20
96.73218855062227
 11
129.733141463828
 21
96.97980792840005
  0
LINE
  5
78
100
AcDbEntity
  8
0
  6
ByLayer
 62
  256
370
   -1
100
AcDbLine
 10
129.733141463828
 20
96.97980792840005
 11
129.485522663828
 21
97.47504841728895
  0
LINE
  5
79
100
AcDbEntity
  8
0
  6
ByLayer
 62
  256
370
   -1
100
AcDbLine
 10
104.3624970868936
 20
101.6845697506223
 11
101.8863090868935
 21
98.2179030839556
  0
LINE
  5
7A
100
AcDbEntity
  8
0
  6
ByLayer
 62
  256
370
   -1
100
AcDbLine
 10
101.8863090868935
 20
98.2179030839556
 11
105.6005939757824
 21
98.2179030839556
  0
LINE
  5
7B
100
AcDbEntity
  8
0
  6
ByLayer
 62
  256
370
   -1
100
AcDbLine
 10
104.3624970868936
 20
101.6845697506223
 11
104.3624970868936
 21
96.48456975062227
  0
LINE
  5
7C
100
AcDbEntity
  8
0
  6
ByLayer
 62
  256
370
   -1
100
AcDbLine
 10
74.98736774731287
 20
101.6845697506223
 11
77.71117801397955
 21
101.6845697506223
  0
LINE
  5
7D
100
AcDbEntity
  8
0
  6
ByLayer
 62
  256
370
   -1
100
AcDbLine
 10
77.71117801397955
 20
101.6845697506223
 11
76.22546290286843
 21
99.70361819506672
  0
LINE
  5
7E
100
AcDbEntity
  8
0
  6
ByLayer
 62
  256
370
   -1
100
AcDbLine
 10
76.22546290286843
 20
99.70361819506672
 11
76.96831756953509
 21
99.70361819506672
  0
LINE
  5
7F
100
AcDbEntity
  8
0
  6
ByLayer
 62
  256
370
   -1
100
AcDbLine
 10
76.96831756953509
 20
99.70361819506672
 11
77.46355979175732
 21
99.4559999728445
  0
LINE
  5
80
100
AcDbEntity
  8
0
  6
ByLayer
 62
  256
370
   -1
100
AcDbLine
 10
77.46355979175732
 20
99.4559999728445
 11
77.71117801397955
 21
99.20838175062228
  0
LINE
  5
81
100
AcDbEntity
  8
0
  6
ByLayer
 62
  256
370
   -1
100
AcDbLine
 10
77.71117801397955
 20
99.20838175062228
 11
77.95879623620176
 21
98.46552130617782
  0
LINE
  5
82
100
AcDbEntity
  8
0
  6
ByLayer
 62
  256
370
   -1
100
AcDbLine
 10
77.95879623620176
 20
98.46552130617782
 11
77.95879623620176
 21
97.97028486173339
  0
LINE
  5
83
100
AcDbEntity
  8
0
  6
ByLayer
 62
  256
370
   -1
100
AcDbLine
 10
77.95879623620176
 20
97.97028486173339
 11
77.71117801397955
 21
97.22742441728893
  0
LINE
  5
84
100
AcDbEntity
  8
0
  6
ByLayer
 62
  256
370
   -1
100
AcDbLine
 10
77.71117801397955
 20
97.22742441728893
 11
77.2159415695351
 21
96.73218855062227
  0
LINE
  5
85
100
AcDbEntity
  8
0
  6
ByLayer
 62
  256
370
   -1
100
AcDbLine
 10
77.2159415695351
 20
96.73218855062227
 11
76.47308112509064
 21
96.48456975062227
  0
LINE
  5
86
100
AcDbEntity
  8
0
  6
ByLayer
 62
  256
370
   -1
100
AcDbLine
 10
76.47308112509064
 20
96.48456975062227
 11
75.73022645842399
 21
96.48456975062227
  0
LINE
  5
87
100
AcDbEntity
  8
0
  6
ByLayer
 62
  256
370
   -1
100
AcDbLine
 10
75.73022645842399
 20
96.48456975062227
 11
74.98736774731287
 21
96.73218855062227
  0
LINE
  5
88
100
AcDbEntity
  8
0
  6
ByLayer
 62
  256
370
   -1
100
AcDbLine
 10
74.98736774731287
 20
96.73218855062227
 11
74.73974836953509
 21
96.97980792840005
  0
LINE
  5
89
100
AcDbEntity
  8
0
  6
ByLayer
 62
  256
370
   -1
100
AcDbLine
 10
74.73974836953509
 20
96.97980792840005
 11
74.49212956953509
 21
97.47504841728895
  0
LINE
  5
8A
100
AcDbEntity
  8
0
  6
ByLayer
 62
  256
370
   -1
100
AcDbLine
 10
47.60180045189284
 20
100.4464728617334
 11
47.60180045189284
 21
100.6940910839556
  0
LINE
  5
8B
100
AcDbEntity
  8
0
  6
ByLayer
 62
  256
370
   -1
100
AcDbLine
 10
47.60180045189284
 20
100.6940910839556
 11
47.84941982967062
 21
101.1893333061778
  0
LINE
  5
8C
100
AcDbEntity
  8
0
  6
ByLayer
 62
  256
370
   -1
100
AcDbLine
 10
47.84941982967062
 20
101.1893333061778
 11
48.0970363185595
 21
101.4369515284001
  0
LINE
  5
8D
100
AcDbEntity
  8
0
  6
ByLayer
 62
  256
370
   -1
100
AcDbLine
 10
48.0970363185595
 20
101.4369515284001
 11
48.59227854078173
 21
101.6845697506223
  0
LINE
  5
8E
100
AcDbEntity
  8
0
  6
ByLayer
 62
  256
370
   -1
100
AcDbLine
 10
48.59227854078173
 20
101.6845697506223
 11
49.58275142967062
 21
101.6845697506223
  0
LINE
  5
8F
100
AcDbEntity
  8
0
  6
ByLayer
 62
  256
370
   -1
100
AcDbLine
 10
49.58275142967062
 20
101.6845697506223
 11
50.07799365189284
 21
101.4369515284001
  0
LINE
  5
90
100
AcDbEntity
  8
0
  6
ByLayer
 62
  256
370
   -1
100
AcDbLine
 10
50.07799365189284
 20
101.4369515284001
 11
50.32561187411507
 21
101.1893333061778
  0
LINE
  5
91
100
AcDbEntity
  8
0
  6
ByLayer
 62
  256
370
   -1
100
AcDbLine
 10
50.32561187411507
 20
101.1893333061778
 11
50.57323009633728
 21
100.6940910839556
  0
LINE
  5
92
100
AcDbEntity
  8
0
  6
ByLayer
 62
  256
370
   -1
100
AcDbLine
 10
50.57323009633728
 20
100.6940910839556
 11
50.57323009633728
 21
100.1988546395112
  0
LINE
  5
93
100
AcDbEntity
  8
0
  6
ByLayer
 62
  256
370
   -1
100
AcDbLine
 10
50.57323009633728
 20
100.1988546395112
 11
50.32561187411507
 21
99.70361819506672
  0
LINE
  5
94
100
AcDbEntity
  8
0
  6
ByLayer
 62
  256
370
   -1
100
AcDbLine
 10
50.32561187411507
 20
99.70361819506672
 11
49.83036965189284
 21
98.96075775062226
  0
LINE
  5
95
100
AcDbEntity
  8
0
  6
ByLayer
 62
  256
370
   -1
100
AcDbLine
 10
49.83036965189284
 20
98.96075775062226
 11
47.35418165189284
 21
96.48456975062227
  0
LINE
  5
96
100
AcDbEntity
  8
0
  6
ByLayer
 62
  256
370
   -1
100
AcDbLine
 10
47.35418165189284
 20
96.48456975062227
 11
50.82084831855951
 21
96.48456975062227
  0
LINE
  5
97
100
AcDbEntity
  8
0
  6
ByLayer
 62
  256
370
   -1
100
AcDbLine
 10
67.43827862231832
 20
90.14456975062227
 11
67.43827862231832
 21
106.02525
  0
LINE
  5
98
100
AcDbEntity
  8
0
  6
ByLayer
 62
  256
370
   -1
100
AcDbLine
 10
85.31897862231833
 20
90.14456975062227
 11
85.31897862231833
 21
106.02525
  0
LINE
  5
99
100
AcDbEntity
  8
0
  6
ByLayer
 62
  256
370
   -1
100
AcDbLine
 10
85.31897862231833
 20
90.14456975062227
 11
67.43827862231832
 21
90.14456975062227
  0
LINE
  5
9A
100
AcDbEntity
  8
0
  6
ByLayer
 62
  256
370
   -1
100
AcDbLine
 10
94.7382786223183
 20
90.14456975062227
 11
94.7382786223183
 21
106.02525
  0
LINE
  5
9B
100
AcDbEntity
  8
0
  6
ByLayer
 62
  256
370
   -1
100
AcDbLine
 10
112.6189786223183
 20
90.14456975062227
 11
112.6189786223183
 21
106.02525
  0
LINE
  5
9C
100
AcDbEntity
  8
0
  6
ByLayer
 62
  256
370
   -1
100
AcDbLine
 10
112.6189786223183
 20
90.14456975062227
 11
94.7382786223183
 21
90.14456975062227
  0
LINE
  5
9D
100
AcDbEntity
  8
0
  6
ByLayer
 62
  256
370
   -1
100
AcDbLine
 10
12.83827862231833
 20
90.14456975062227
 11
12.83827862231833
 21
106.02525
  0
LINE
  5
9E
100
AcDbEntity
  8
0
  6
ByLayer
 62
  256
370
   -1
100
AcDbLine
 10
30.71897862231834
 20
90.14456975062227
 11
30.71897862231834
 21
106.02525
  0
LINE
  5
9F
100
AcDbEntity
  8
0
  6
ByLayer
 62
  256
370
   -1
100
AcDbLine
 10
30.71897862231834
 20
90.14456975062227
 11
12.83827862231833
 21
90.14456975062227
  0
LINE
  5
A0
100
AcDbEntity
  8
0
  6
ByLayer
 62
  256
370
   -1
100
AcDbLine
 10
40.13827862231832
 20
90.14456975062227
 11
40.13827862231832
 21
106.02525
  0
LINE
  5
A1
100
AcDbEntity
  8
0
  6
ByLayer
 62
  256
370
   -1
100
AcDbLine
 10
58.01897862231832
 20
90.14456975062227
 11
58.01897862231832
 21
106.02525
  0
LINE
  5
A2
100
AcDbEntity
  8
0
  6
ByLayer
 62
  256
370
   -1
100
AcDbLine
 10
58.01897862231832
 20
90.14456975062227
 11
40.13827862231832
 21
90.14456975062227
  0
LINE
  5
A3
100
AcDbEntity
  8
0
  6
ByLayer
 62
  256
370
   -1
100
AcDbLine
 10
149.3382786223183
 20
90.14456975062227
 11
149.3382786223183
 21
106.02525
  0
LINE
  5
A4
100
AcDbEntity
  8
0
  6
ByLayer
 62
  256
370
   -1
100
AcDbLine
 10
167.2189786223183
 20
90.14456975062227
 11
167.2189786223183
 21
106.02525
  0
LINE
  5
A5
100
AcDbEntity
  8
0
  6
ByLayer
 62
  256
370
   -1
100
AcDbLine
 10
167.2189786223183
 20
90.14456975062227
 11
149.3382786223183
 21
90.14456975062227
  0
LINE
  5
A6
100
AcDbEntity
  8
0
  6
ByLayer
 62
  256
370
   -1
100
AcDbLine
 10
176.6382786223183
 20
90.14456975062227
 11
176.6382786223183
 21
106.02525
  0
LINE
  5
A7
100
AcDbEntity
  8
0
  6
ByLayer
 62
  256
370
   -1
100
AcDbLine
 10
194.5189786223183
 20
90.14456975062227
 11
194.5189786223183
 21
106.02525
  0
LINE
  5
A8
100
AcDbEntity
  8
0
  6
ByLayer
 62
  256
370
   -1
100
AcDbLine
 10
194.5189786223183
 20
90.14456975062227
 11
176.6382786223183
 21
90.14456975062227
  0
LINE
  5
A9
100
AcDbEntity
  8
0
  6
ByLayer
 62
  256
370
   -1
100
AcDbLine
 10
122.0382786223183
 20
90.14456975062227
 11
122.0382786223183
 21
106.02525
  0
LINE
  5
AA
100
AcDbEntity
  8
0
  6
ByLayer
 62
  256
370
   -1
100
AcDbLine
 10
139.9189786223183
 20
90.14456975062227
 11
139.9189786223183
 21
106.02525
  0
LINE
  5
AB
100
AcDbEntity
  8
0
  6
ByLayer
 62
  256
370
   -1
100
AcDbLine
 10
139.9189786223183
 20
90.14456975062227
 11
122.0382786223183
 21
90.14456975062227
  0
LINE
  5
AC
100
AcDbEntity
  8
0
  6
ByLayer
 62
  256
370
   -1
100
AcDbLine
 10
67.43827862231832
 20
204.0915
 11
67.43827862231832
 21
219.9721802493777
  0
LINE
  5
AD
100
AcDbEntity
  8
0
  6
ByLayer
 62
  256
370
   -1
100
AcDbLine
 10
85.31897862231833
 20
204.0915
 11
85.31897862231833
 21
219.9721802493777
  0
LINE
  5
AE
100
AcDbEntity
  8
0
  6
ByLayer
 62
  256
370
   -1
100
AcDbLine
 10
94.7382786223183
 20
204.0915
 11
94.7382786223183
 21
219.9721802493777
  0
LINE
  5
AF
100
AcDbEntity
  8
0
  6
ByLayer
 62
  256
370
   -1
100
AcDbLine
 10
112.6189786223183
 20
204.0915
 11
112.6189786223183
 21
219.9721802493777
  0
LINE
  5
B0
100
AcDbEntity
  8
0
  6
ByLayer
 62
  256
370
   -1
100
AcDbLine
 10
12.83827862231833
 20
204.0915
 11
12.83827862231833
 21
219.9721802493777
  0
LINE
  5
B1
100
AcDbEntity
  8
0
  6
ByLayer
 62
  256
370
   -1
100
AcDbLine
 10
30.71897862231834
 20
204.0915
 11
30.71897862231834
 21
219.9721802493777
  0
LINE
  5
B2
100
AcDbEntity
  8
0
  6
ByLayer
 62
  256
370
   -1
100
AcDbLine
 10
40.13827862231832
 20
204.0915
 11
40.13827862231832
 21
219.9721802493777
  0
LINE
  5
B3
100
AcDbEntity
  8
0
  6
ByLayer
 62
  256
370
   -1
100
AcDbLine
 10
58.01897862231832
 20
204.0915
 11
58.01897862231832
 21
219.9721802493777
  0
LINE
  5
B4
100
AcDbEntity
  8
0
  6
ByLayer
 62
  256
370
   -1
100
AcDbLine
 10
149.3382786223183
 20
204.0915
 11
149.3382786223183
 21
219.9721802493777
  0
LINE
  5
B5
100
AcDbEntity
  8
0
  6
ByLayer
 62
  256
370
   -1
100
AcDbLine
 10
167.2189786223183
 20
204.0915
 11
167.2189786223183
 21
219.9721802493777
  0
LINE
  5
B6
100
AcDbEntity
  8
0
  6
ByLayer
 62
  256
370
   -1
100
AcDbLine
 10
176.6382786223183
 20
204.0915
 11
176.6382786223183
 21
219.9721802493777
  0
LINE
  5
B7
100
AcDbEntity
  8
0
  6
ByLayer
 62
  256
370
   -1
100
AcDbLine
 10
122.0382786223183
 20
204.0915
 11
122.0382786223183
 21
219.9721802493777
  0
LINE
  5
B8
100
AcDbEntity
  8
0
  6
ByLayer
 62
  256
370
   -1
100
AcDbLine
 10
139.9189786223183
 20
204.0915
 11
139.9189786223183
 21
219.9721802493777
  0
LINE
  5
B9
100
AcDbEntity
  8
0
  6
ByLayer
 62
  256
370
   -1
100
AcDbLine
 10
12.83827862231833
 20
219.9721802493777
 11
30.71897862231834
 21
219.9721802493777
  0
LINE
  5
BA
100
AcDbEntity
  8
0
  6
ByLayer
 62
  256
370
   -1
100
AcDbLine
 10
40.13827862231832
 20
219.9721802493777
 11
58.01897862231832
 21
219.9721802493777
  0
LINE
  5
BB
100
AcDbEntity
  8
0
  6
ByLayer
 62
  256
370
   -1
100
AcDbLine
 10
67.43827862231832
 20
219.9721802493777
 11
85.31897862231833
 21
219.9721802493777
  0
LINE
  5
BC
100
AcDbEntity
  8
0
  6
ByLayer
 62
  256
370
   -1
100
AcDbLine
 10
94.7382786223183
 20
219.9721802493777
 11
112.6189786223183
 21
219.9721802493777
  0
LINE
  5
BD
100
AcDbEntity
  8
0
  6
ByLayer
 62
  256
370
   -1
100
AcDbLine
 10
122.0382786223183
 20
219.9721802493777
 11
139.9189786223183
 21
219.9721802493777
  0
LINE
  5
BE
100
AcDbEntity
  8
0
  6
ByLayer
 62
  256
370
   -1
100
AcDbLine
 10
149.3382786223183
 20
219.9721802493777
 11
167.2189786223183
 21
219.9721802493777
  0
LINE
  5
BF
100
AcDbEntity
  8
0
  6
ByLayer
 62
  256
370
   -1
100
AcDbLine
 10
176.6382786223183
 20
219.9721802493777
 11
194.5189786223183
 21
219.9721802493777
  0
LINE
  5
C0
100
AcDbEntity
  8
0
  6
ByLayer
 62
  256
370
   -1
100
AcDbLine
 10
194.5189786223183
 20
204.0915
 11
194.5189786223183
 21
219.9721802493777
  0
LINE
  5
C1
100
AcDbEntity
  8
0
  6
ByLayer
 62
  256
370
   -1
100
AcDbLine
 10
3.418978622318335
 20
204.0915
 11
3.418978622318335
 21
106.02525
  0
LINE
  5
C2
100
AcDbEntity
  8
0
  6
ByLayer
 62
  256
370
   -1
100
AcDbLine
 10
1.418978622318335
 20
206.0915
 11
1.418978622318335
 21
104.02525
  0
LINE
  5
C3
100
AcDbEntity
  8
0
  6
ByLayer
 62
  256
370
   -1
100
AcDbLine
 10
1.418978622318335
 20
206.0915
 11
12.83827862231833
 21
206.0915
  0
LINE
  5
C4
100
AcDbEntity
  8
0
  6
ByLayer
 62
  256
370
   -1
100
AcDbLine
 10
30.71897862231834
 20
206.0915
 11
40.13827862231832
 21
206.0915000000001
  0
LINE
  5
C5
100
AcDbEntity
  8
0
  6
ByLayer
 62
  256
370
   -1
100
AcDbLine
 10
58.01897862231832
 20
206.0915000000001
 11
67.43827862231832
 21
206.0915000000001
  0
LINE
  5
C6
100
AcDbEntity
  8
0
  6
ByLayer
 62
  256
370
   -1
100
AcDbLine
 10
85.31897862231833
 20
206.0915000000001
 11
94.7382786223183
 21
206.0915000000001
  0
LINE
  5
C7
100
AcDbEntity
  8
0
  6
ByLayer
 62
  256
370
   -1
100
AcDbLine
 10
112.6189786223183
 20
206.0915000000001
 11
122.0382786223183
 21
206.0915
  0
LINE
  5
C8
100
AcDbEntity
  8
0
  6
ByLayer
 62
  256
370
   -1
100
AcDbLine
 10
139.9189786223183
 20
206.0915
 11
149.3382786223183
 21
206.0915
  0
LINE
  5
C9
100
AcDbEntity
  8
0
  6
ByLayer
 62
  256
370
   -1
100
AcDbLine
 10
167.2189786223183
 20
206.0915
 11
176.6382786223183
 21
206.0915
  0
LINE
  5
CA
100
AcDbEntity
  8
0
  6
ByLayer
 62
  256
370
   -1
100
AcDbLine
 10
12.83827862231833
 20
104.02525
 11
1.418978622318335
 21
104.02525
  0
LINE
  5
CB
100
AcDbEntity
  8
0
  6
ByLayer
 62
  256
370
   -1
100
AcDbLine
 10
40.13827862231832
 20
104.02525
 11
30.71897862231834
 21
104.02525
  0
LINE
  5
CC
100
AcDbEntity
  8
0
  6
ByLayer
 62
  256
370
   -1
100
AcDbLine
 10
67.43827862231832
 20
104.02525
 11
58.01897862231832
 21
104.02525
  0
LINE
  5
CD
100
AcDbEntity
  8
0
  6
ByLayer
 62
  256
370
   -1
100
AcDbLine
 10
94.7382786223183
 20
104.02525
 11
85.31897862231833
 21
104.02525
  0
LINE
  5
CE
100
AcDbEntity
  8
0
  6
ByLayer
 62
  256
370
   -1
100
AcDbLine
 10
122.0382786223183
 20
104.02525
 11
112.6189786223183
 21
104.02525
  0
LINE
  5
CF
100
AcDbEntity
  8
0
  6
ByLayer
 62
  256
370
   -1
100
AcDbLine
 10
149.3382786223183
 20
104.02525
 11
139.9189786223183
 21
104.02525
  0
LINE
  5
D0
100
AcDbEntity
  8
0
  6
ByLayer
 62
  256
370
   -1
100
AcDbLine
 10
176.6382786223183
 20
104.02525
 11
167.2189786223183
 21
104.02525
  0
LINE
  5
D1
100
AcDbEntity
  8
0
  6
ByLayer
 62
  256
370
   -1
100
AcDbLine
 10
14.67546732113982
 20
227.3229
 11
16.65641887669538
 21
222.1229
  0
LINE
  5
D2
100
AcDbEntity
  8
0
  6
ByLayer
 62
  256
370
   -1
100
AcDbLine
 10
18.63737043225093
 20
227.3229
 11
16.65641887669538
 21
222.1229
  0
LINE
  5
D3
100
AcDbEntity
  8
0
  6
ByLayer
 62
  256
370
   -1
100
AcDbLine
 10
23.34213398780649
 20
224.846712
 11
22.84689176558427
 21
225.3419484444444
  0
LINE
  5
D4
100
AcDbEntity
  8
0
  6
ByLayer
 62
  256
370
   -1
100
AcDbLine
 10
22.84689176558427
 20
225.3419484444444
 11
22.35165532113982
 21
225.5895666666667
  0
LINE
  5
D5
100
AcDbEntity
  8
0
  6
ByLayer
 62
  256
370
   -1
100
AcDbLine
 10
22.35165532113982
 20
225.5895666666667
 11
21.60880065447316
 21
225.5895666666667
  0
LINE
  5
D6
100
AcDbEntity
  8
0
  6
ByLayer
 62
  256
370
   -1
100
AcDbLine
 10
21.60880065447316
 20
225.5895666666667
 11
21.11355843225093
 21
225.3419484444444
  0
LINE
  5
D7
100
AcDbEntity
  8
0
  6
ByLayer
 62
  256
370
   -1
100
AcDbLine
 10
21.11355843225093
 20
225.3419484444444
 11
20.61832256558427
 21
224.846712
  0
LINE
  5
D8
100
AcDbEntity
  8
0
  6
ByLayer
 62
  256
370
   -1
100
AcDbLine
 10
20.61832256558427
 20
224.846712
 11
20.37070376558427
 21
224.1038515555555
  0
LINE
  5
D9
100
AcDbEntity
  8
0
  6
ByLayer
 62
  256
370
   -1
100
AcDbLine
 10
20.37070376558427
 20
224.1038515555555
 11
20.37070376558427
 21
223.6086151111111
  0
LINE
  5
DA
100
AcDbEntity
  8
0
  6
ByLayer
 62
  256
370
   -1
100
AcDbLine
 10
20.37070376558427
 20
223.6086151111111
 11
20.61832256558427
 21
222.8657546666667
  0
LINE
  5
DB
100
AcDbEntity
  8
0
  6
ByLayer
 62
  256
370
   -1
100
AcDbLine
 10
20.61832256558427
 20
222.8657546666667
 11
21.11355843225093
 21
222.3705188
  0
LINE
  5
DC
100
AcDbEntity
  8
0
  6
ByLayer
 62
  256
370
   -1
100
AcDbLine
 10
21.11355843225093
 20
222.3705188
 11
21.60880065447316
 21
222.1229
  0
LINE
  5
DD
100
AcDbEntity
  8
0
  6
ByLayer
 62
  256
370
   -1
100
AcDbLine
 10
21.60880065447316
 20
222.1229
 11
22.35165532113982
 21
222.1229
  0
LINE
  5
DE
100
AcDbEntity
  8
0
  6
ByLayer
 62
  256
370
   -1
100
AcDbLine
 10
22.35165532113982
 20
222.1229
 11
22.84689176558427
 21
222.3705188
  0
LINE
  5
DF
100
AcDbEntity
  8
0
  6
ByLayer
 62
  256
370
   -1
100
AcDbLine
 10
22.84689176558427
 20
222.3705188
 11
23.34213398780649
 21
222.8657546666667
  0
LINE
  5
E0
100
AcDbEntity
  8
0
  6
ByLayer
 62
  256
370
   -1
100
AcDbLine
 10
28.04689754336204
 20
224.846712
 11
27.55165532113982
 21
225.3419484444444
  0
LINE
  5
E1
100
AcDbEntity
  8
0
  6
ByLayer
 62
  256
370
   -1
100
AcDbLine
 10
27.55165532113982
 20
225.3419484444444
 11
27.05641887669538
 21
225.5895666666667
  0
LINE
  5
E2
100
AcDbEntity
  8
0
  6
ByLayer
 62
  256
370
   -1
100
AcDbLine
 10
27.05641887669538
 20
225.5895666666667
 11
26.31356421002871
 21
225.5895666666667
  0
LINE
  5
E3
100
AcDbEntity
  8
0
  6
ByLayer
 62
  256
370
   -1
100
AcDbLine
 10
26.31356421002871
 20
225.5895666666667
 11
25.81832198780649
 21
225.3419484444444
  0
LINE
  5
E4
100
AcDbEntity
  8
0
  6
ByLayer
 62
  256
370
   -1
100
AcDbLine
 10
25.81832198780649
 20
225.3419484444444
 11
25.32308612113982
 21
224.846712
  0
LINE
  5
E5
100
AcDbEntity
  8
0
  6
ByLayer
 62
  256
370
   -1
100
AcDbLine
 10
25.32308612113982
 20
224.846712
 11
25.07546732113982
 21
224.1038515555555
  0
LINE
  5
E6
100
AcDbEntity
  8
0
  6
ByLayer
 62
  256
370
   -1
100
AcDbLine
 10
25.07546732113982
 20
224.1038515555555
 11
25.07546732113982
 21
223.6086151111111
  0
LINE
  5
E7
100
AcDbEntity
  8
0
  6
ByLayer
 62
  256
370
   -1
100
AcDbLine
 10
25.07546732113982
 20
223.6086151111111
 11
25.32308612113982
 21
222.8657546666667
  0
LINE
  5
E8
100
AcDbEntity
  8
0
  6
ByLayer
 62
  256
370
   -1
100
AcDbLine
 10
25.32308612113982
 20
222.8657546666667
 11
25.81832198780649
 21
222.3705188
  0
LINE
  5
E9
100
AcDbEntity
  8
0
  6
ByLayer
 62
  256
370
   -1
100
AcDbLine
 10
25.81832198780649
 20
222.3705188
 11
26.31356421002871
 21
222.1229
  0
LINE
  5
EA
100
AcDbEntity
  8
0
  6
ByLayer
 62
  256
370
   -1
100
AcDbLine
 10
26.31356421002871
 20
222.1229
 11
27.05641887669538
 21
222.1229
  0
LINE
  5
EB
100
AcDbEntity
  8
0
  6
ByLayer
 62
  256
370
   -1
100
AcDbLine
 10
27.05641887669538
 20
222.1229
 11
27.55165532113982
 21
222.3705188
  0
LINE
  5
EC
100
AcDbEntity
  8
0
  6
ByLayer
 62
  256
370
   -1
100
AcDbLine
 10
27.55165532113982
 20
222.3705188
 11
28.04689754336204
 21
222.8657546666667
  0
LINE
  5
ED
100
AcDbEntity
  8
0
  6
ByLayer
 62
  256
370
   -1
100
AcDbLine
 10
210.0110937006031
 20
86.75574275982447
 11
209.7634754783809
 21
87.2509849820467
  0
LINE
  5
EE
100
AcDbEntity
  8
0
  6
ByLayer
 62
  256
370
   -1
100
AcDbLine
 10
209.7634754783809
 20
87.2509849820467
 11
209.2682390339364
 21
87.74622142649116
  0
LINE
  5
EF
100
AcDbEntity
  8
0
  6
ByLayer
 62
  256
370
   -1
100
AcDbLine
 10
209.2682390339364
 20
87.74622142649116
 11
208.7729968117142
 21
87.99383964871336
  0
LINE
  5
F0
100
AcDbEntity
  8
0
  6
ByLayer
 62
  256
370
   -1
100
AcDbLine
 10
208.7729968117142
 20
87.99383964871336
 11
207.7825239228253
 21
87.99383964871336
  0
LINE
  5
F1
100
AcDbEntity
  8
0
  6
ByLayer
 62
  256
370
   -1
100
AcDbLine
 10
207.7825239228253
 20
87.99383964871336
 11
207.2872874783809
 21
87.74622142649116
  0
LINE
  5
F2
100
AcDbEntity
  8
0
  6
ByLayer
 62
  256
370
   -1
100
AcDbLine
 10
207.2872874783809
 20
87.74622142649116
 11
206.792046989492
 21
87.2509849820467
  0
LINE
  5
F3
100
AcDbEntity
  8
0
  6
ByLayer
 62
  256
370
   -1
100
AcDbLine
 10
206.792046989492
 20
87.2509849820467
 11
206.5444276117142
 21
86.75574275982447
  0
LINE
  5
F4
100
AcDbEntity
  8
0
  6
ByLayer
 62
  256
370
   -1
100
AcDbLine
 10
206.5444276117142
 20
86.75574275982447
 11
206.2968088117142
 21
86.01288809315781
  0
LINE
  5
F5
100
AcDbEntity
  8
0
  6
ByLayer
 62
  256
370
   -1
100
AcDbLine
 10
206.2968088117142
 20
86.01288809315781
 11
206.2968088117142
 21
84.77479120426892
  0
LINE
  5
F6
100
AcDbEntity
  8
0
  6
ByLayer
 62
  256
370
   -1
100
AcDbLine
 10
206.2968088117142
 20
84.77479120426892
 11
206.5444276117142
 21
84.03193653760223
  0
LINE
  5
F7
100
AcDbEntity
  8
0
  6
ByLayer
 62
  256
370
   -1
100
AcDbLine
 10
206.5444276117142
 20
84.03193653760223
 11
206.792046989492
 21
83.53669431538003
  0
LINE
  5
F8
100
AcDbEntity
  8
0
  6
ByLayer
 62
  256
370
   -1
100
AcDbLine
 10
206.792046989492
 20
83.53669431538003
 11
207.2872874783809
 21
83.04145844871334
  0
LINE
  5
F9
100
AcDbEntity
  8
0
  6
ByLayer
 62
  256
370
   -1
100
AcDbLine
 10
207.2872874783809
 20
83.04145844871334
 11
207.7825239228253
 21
82.79383964871334
  0
LINE
  5
FA
100
AcDbEntity
  8
0
  6
ByLayer
 62
  256
370
   -1
100
AcDbLine
 10
207.7825239228253
 20
82.79383964871334
 11
208.7729968117142
 21
82.79383964871334
  0
LINE
  5
FB
100
AcDbEntity
  8
0
  6
ByLayer
 62
  256
370
   -1
100
AcDbLine
 10
208.7729968117142
 20
82.79383964871334
 11
209.2682390339364
 21
83.04145844871334
  0
LINE
  5
FC
100
AcDbEntity
  8
0
  6
ByLayer
 62
  256
370
   -1
100
AcDbLine
 10
209.2682390339364
 20
83.04145844871334
 11
209.7634754783809
 21
83.53669431538003
  0
LINE
  5
FD
100
AcDbEntity
  8
0
  6
ByLayer
 62
  256
370
   -1
100
AcDbLine
 10
209.7634754783809
 20
83.53669431538003
 11
210.0110937006031
 21
84.03193653760223
  0
LINE
  5
FE
100
AcDbEntity
  8
0
  6
ByLayer
 62
  256
370
   -1
100
AcDbLine
 10
210.0110937006031
 20
84.03193653760223
 11
210.0110937006031
 21
84.77479120426892
  0
LINE
  5
FF
100
AcDbEntity
  8
0
  6
ByLayer
 62
  256
370
   -1
100
AcDbLine
 10
208.7729968117142
 20
84.77479120426892
 11
210.0110937006031
 21
84.77479120426892
  0
LINE
  5
100
100
AcDbEntity
  8
0
  6
ByLayer
 62
  256
370
   -1
100
AcDbLine
 10
211.7444270339364
 20
87.99383964871336
 11
211.7444270339364
 21
82.79383964871334
  0
LINE
  5
101
100
AcDbEntity
  8
0
  6
ByLayer
 62
  256
370
   -1
100
AcDbLine
 10
211.7444270339364
 20
87.99383964871336
 11
215.2110937006031
 21
82.79383964871334
  0
LINE
  5
102
100
AcDbEntity
  8
0
  6
ByLayer
 62
  256
370
   -1
100
AcDbLine
 10
215.2110937006031
 20
87.99383964871336
 11
215.2110937006031
 21
82.79383964871334
  0
LINE
  5
103
100
AcDbEntity
  8
0
  6
ByLayer
 62
  256
370
   -1
100
AcDbLine
 10
216.9444270339364
 20
87.99383964871336
 11
216.9444270339364
 21
82.79383964871334
  0
LINE
  5
104
100
AcDbEntity
  8
0
  6
ByLayer
 62
  256
370
   -1
100
AcDbLine
 10
216.9444270339364
 20
87.99383964871336
 11
218.6777603672698
 21
87.99383964871336
  0
LINE
  5
105
100
AcDbEntity
  8
0
  6
ByLayer
 62
  256
370
   -1
100
AcDbLine
 10
218.6777603672698
 20
87.99383964871336
 11
219.4206150339364
 21
87.74622142649116
  0
LINE
  5
106
100
AcDbEntity
  8
0
  6
ByLayer
 62
  256
370
   -1
100
AcDbLine
 10
219.4206150339364
 20
87.74622142649116
 11
219.9158572561587
 21
87.2509849820467
  0
LINE
  5
107
100
AcDbEntity
  8
0
  6
ByLayer
 62
  256
370
   -1
100
AcDbLine
 10
219.9158572561587
 20
87.2509849820467
 11
220.1634754783809
 21
86.75574275982447
  0
LINE
  5
108
100
AcDbEntity
  8
0
  6
ByLayer
 62
  256
370
   -1
100
AcDbLine
 10
220.1634754783809
 20
86.75574275982447
 11
220.4110937006031
 21
86.01288809315781
  0
LINE
  5
109
100
AcDbEntity
  8
0
  6
ByLayer
 62
  256
370
   -1
100
AcDbLine
 10
220.4110937006031
 20
86.01288809315781
 11
220.4110937006031
 21
84.77479120426892
  0
LINE
  5
10A
100
AcDbEntity
  8
0
  6
ByLayer
 62
  256
370
   -1
100
AcDbLine
 10
220.4110937006031
 20
84.77479120426892
 11
220.1634754783809
 21
84.03193653760223
  0
LINE
  5
10B
100
AcDbEntity
  8
0
  6
ByLayer
 62
  256
370
   -1
100
AcDbLine
 10
220.1634754783809
 20
84.03193653760223
 11
219.9158572561587
 21
83.53669431538003
  0
LINE
  5
10C
100
AcDbEntity
  8
0
  6
ByLayer
 62
  256
370
   -1
100
AcDbLine
 10
219.9158572561587
 20
83.53669431538003
 11
219.4206150339364
 21
83.04145844871334
  0
LINE
  5
10D
100
AcDbEntity
  8
0
  6
ByLayer
 62
  256
370
   -1
100
AcDbLine
 10
219.4206150339364
 20
83.04145844871334
 11
218.6777603672698
 21
82.79383964871334
  0
LINE
  5
10E
100
AcDbEntity
  8
0
  6
ByLayer
 62
  256
370
   -1
100
AcDbLine
 10
218.6777603672698
 20
82.79383964871334
 11
216.9444270339364
 21
82.79383964871334
  0
LINE
  5
10F
100
AcDbEntity
  8
0
  6
ByLayer
 62
  256
370
   -1
100
AcDbLine
 10
221.8189786223183
 20
90.14456975062228
 11
221.8189786223183
 21
106.02525
  0
LINE
  5
110
100
AcDbEntity
  8
0
  6
ByLayer
 62
  256
370
   -1
100
AcDbLine
 10
221.8189786223183
 20
90.14456975062228
 11
203.9382786223183
 21
90.14456975062228
  0
LINE
  5
111
100
AcDbEntity
  8
0
  6
ByLayer
 62
  256
370
   -1
100
AcDbLine
 10
203.9382786223183
 20
219.9721802493777
 11
221.8189786223183
 21
219.9721802493777
  0
LINE
  5
112
100
AcDbEntity
  8
0
  6
ByLayer
 62
  256
370
   -1
100
AcDbLine
 10
221.8189786223183
 20
204.0915
 11
221.8189786223183
 21
219.9721802493777
  0
LINE
  5
113
100
AcDbEntity
  8
0
  6
ByLayer
 62
  256
370
   -1
100
AcDbLine
 10
233.2382786223183
 20
206.0915
 11
233.2382786223183
 21
104.02525
  0
LINE
  5
114
100
AcDbEntity
  8
0
  6
ByLayer
 62
  256
370
   -1
100
AcDbLine
 10
221.8189786223183
 20
206.0915
 11
233.2382786223183
 21
206.0915
  0
LINE
  5
115
100
AcDbEntity
  8
0
  6
ByLayer
 62
  256
370
   -1
100
AcDbLine
 10
233.2382786223183
 20
104.02525
 11
221.8189786223183
 21
104.02525
  0
LINE
  5
116
100
AcDbEntity
  8
0
  6
ByLayer
 62
  256
370
   -1
100
AcDbLine
 10
194.5189786223183
 20
206.0915
 11
203.9382786223183
 21
206.0915
  0
LINE
  5
117
100
AcDbEntity
  8
0
  6
ByLayer
 62
  256
370
   -1
100
AcDbLine
 10
203.9382786223183
 20
204.0915
 11
203.9382786223183
 21
219.9721802493777
  0
LINE
  5
118
100
AcDbEntity
  8
0
  6
ByLayer
 62
  256
370
   -1
100
AcDbLine
 10
3.418978622318335
 20
204.0915
 11
231.2382786223183
 21
204.0915000000001
  0
LINE
  5
119
100
AcDbEntity
  8
0
  6
ByLayer
 62
  256
370
   -1
100
AcDbLine
 10
203.9382786223183
 20
104.02525
 11
194.5189786223183
 21
104.02525
  0
LINE
  5
11A
100
AcDbEntity
  8
0
  6
ByLayer
 62
  256
370
   -1
100
AcDbLine
 10
231.2382786223183
 20
204.0915000000001
 11
231.2382786223183
 21
106.02525
  0
LINE
  5
11B
100
AcDbEntity
  8
0
  6
ByLayer
 62
  256
370
   -1
100
AcDbLine
 10
203.9382786223183
 20
90.14456975062228
 11
203.9382786223183
 21
106.02525
  0
LINE
  5
11C
100
AcDbEntity
  8
0
  6
ByLayer
 62
  256
370
   -1
100
AcDbLine
 10
231.2382786223183
 20
106.02525
 11
3.418978622318335
 21
106.02525
  0
LINE
  5
11D
100
AcDbEntity
  8
0
  6
ByLayer
 62
  256
370
   -1
100
AcDbLine
 10
212.356788553611
 20
101.6845697506223
 11
211.6139298424999
 21
101.4369515284
  0
LINE
  5
11E
100
AcDbEntity
  8
0
  6
ByLayer
 62
  256
370
   -1
100
AcDbLine
 10
211.6139298424999
 20
101.4369515284
 11
211.3663104647221
 21
100.9417150839555
  0
LINE
  5
11F
100
AcDbEntity
  8
0
  6
ByLayer
 62
  256
370
   -1
100
AcDbLine
 10
211.3663104647221
 20
100.9417150839555
 11
211.3663104647221
 21
100.4464728617333
  0
LINE
  5
120
100
AcDbEntity
  8
0
  6
ByLayer
 62
  256
370
   -1
100
AcDbLine
 10
211.3663104647221
 20
100.4464728617333
 11
211.6139298424999
 21
99.95123641728898
  0
LINE
  5
121
100
AcDbEntity
  8
0
  6
ByLayer
 62
  256
370
   -1
100
AcDbLine
 10
211.6139298424999
 20
99.95123641728898
 11
212.1091703313887
 21
99.70361819506678
  0
LINE
  5
122
100
AcDbEntity
  8
0
  6
ByLayer
 62
  256
370
   -1
100
AcDbLine
 10
212.1091703313887
 20
99.70361819506678
 11
213.0996432202776
 21
99.45599997284458
  0
LINE
  5
123
100
AcDbEntity
  8
0
  6
ByLayer
 62
  256
370
   -1
100
AcDbLine
 10
213.0996432202776
 20
99.45599997284458
 11
213.8425036647221
 21
99.20838175062218
  0
LINE
  5
124
100
AcDbEntity
  8
0
  6
ByLayer
 62
  256
370
   -1
100
AcDbLine
 10
213.8425036647221
 20
99.20838175062218
 11
214.3377401091665
 21
98.71313952840001
  0
LINE
  5
125
100
AcDbEntity
  8
0
  6
ByLayer
 62
  256
370
   -1
100
AcDbLine
 10
214.3377401091665
 20
98.71313952840001
 11
214.5853583313888
 21
98.2179030839556
  0
LINE
  5
126
100
AcDbEntity
  8
0
  6
ByLayer
 62
  256
370
   -1
100
AcDbLine
 10
214.5853583313888
 20
98.2179030839556
 11
214.5853583313888
 21
97.475048417289
  0
LINE
  5
127
100
AcDbEntity
  8
0
  6
ByLayer
 62
  256
370
   -1
100
AcDbLine
 10
214.5853583313888
 20
97.475048417289
 11
214.3377401091665
 21
96.97980792840011
  0
LINE
  5
128
100
AcDbEntity
  8
0
  6
ByLayer
 62
  256
370
   -1
100
AcDbLine
 10
214.3377401091665
 20
96.97980792840011
 11
214.0901218869443
 21
96.73218855062228
  0
LINE
  5
129
100
AcDbEntity
  8
0
  6
ByLayer
 62
  256
370
   -1
100
AcDbLine
 10
214.0901218869443
 20
96.73218855062228
 11
213.3472614424999
 21
96.4845697506222
  0
LINE
  5
12A
100
AcDbEntity
  8
0
  6
ByLayer
 62
  256
370
   -1
100
AcDbLine
 10
213.3472614424999
 20
96.4845697506222
 11
212.356788553611
 21
96.4845697506222
  0
LINE
  5
12B
100
AcDbEntity
  8
0
  6
ByLayer
 62
  256
370
   -1
100
AcDbLine
 10
212.356788553611
 20
96.4845697506222
 11
211.6139298424999
 21
96.73218855062228
  0
LINE
  5
12C
100
AcDbEntity
  8
0
  6
ByLayer
 62
  256
370
   -1
100
AcDbLine
 10
211.6139298424999
 20
96.73218855062228
 11
211.3663104647221
 21
96.97980792840011
  0
LINE
  5
12D
100
AcDbEntity
  8
0
  6
ByLayer
 62
  256
370
   -1
100
AcDbLine
 10
211.3663104647221
 20
96.97980792840011
 11
211.1186916647221
 21
97.475048417289
  0
LINE
  5
12E
100
AcDbEntity
  8
0
  6
ByLayer
 62
  256
370
   -1
100
AcDbLine
 10
211.1186916647221
 20
97.475048417289
 11
211.1186916647221
 21
98.2179030839556
  0
LINE
  5
12F
100
AcDbEntity
  8
0
  6
ByLayer
 62
  256
370
   -1
100
AcDbLine
 10
211.1186916647221
 20
98.2179030839556
 11
211.3663104647221
 21
98.71313952840001
  0
LINE
  5
130
100
AcDbEntity
  8
0
  6
ByLayer
 62
  256
370
   -1
100
AcDbLine
 10
211.3663104647221
 20
98.71313952840001
 11
211.8615463313887
 21
99.20838175062218
  0
LINE
  5
131
100
AcDbEntity
  8
0
  6
ByLayer
 62
  256
370
   -1
100
AcDbLine
 10
211.8615463313887
 20
99.20838175062218
 11
212.6044067758332
 21
99.45599997284458
  0
LINE
  5
132
100
AcDbEntity
  8
0
  6
ByLayer
 62
  256
370
   -1
100
AcDbLine
 10
212.6044067758332
 20
99.45599997284458
 11
213.5948796647221
 21
99.70361819506678
  0
LINE
  5
133
100
AcDbEntity
  8
0
  6
ByLayer
 62
  256
370
   -1
100
AcDbLine
 10
213.5948796647221
 20
99.70361819506678
 11
214.0901218869443
 21
99.95123641728898
  0
LINE
  5
134
100
AcDbEntity
  8
0
  6
ByLayer
 62
  256
370
   -1
100
AcDbLine
 10
214.0901218869443
 20
99.95123641728898
 11
214.3377401091665
 21
100.4464728617333
  0
LINE
  5
135
100
AcDbEntity
  8
0
  6
ByLayer
 62
  256
370
   -1
100
AcDbLine
 10
214.3377401091665
 20
100.4464728617333
 11
214.3377401091665
 21
100.9417150839555
  0
LINE
  5
136
100
AcDbEntity
  8
0
  6
ByLayer
 62
  256
370
   -1
100
AcDbLine
 10
214.3377401091665
 20
100.9417150839555
 11
214.0901218869443
 21
101.4369515284
  0
LINE
  5
137
100
AcDbEntity
  8
0
  6
ByLayer
 62
  256
370
   -1
100
AcDbLine
 10
214.0901218869443
 20
101.4369515284
 11
213.3472614424999
 21
101.6845697506223
  0
LINE
  5
138
100
AcDbEntity
  8
0
  6
ByLayer
 62
  256
370
   -1
100
AcDbLine
 10
213.3472614424999
 20
101.6845697506223
 11
212.356788553611
 21
101.6845697506223
  0
LINE
  5
139
100
AcDbEntity
  8
0
  6
ByLayer
 62
  256
370
   -1
100
AcDbLine
 10
182.4307861094362
 20
213.0290109554501
 11
182.926024287214
 21
213.2766349554501
  0
LINE
  5
13A
100
AcDbEntity
  8
0
  6
ByLayer
 62
  256
370
   -1
100
AcDbLine
 10
182.926024287214
 20
213.2766349554501
 11
183.6688829983251
 21
214.0194896221169
  0
LINE
  5
13B
100
AcDbEntity
  8
0
  6
ByLayer
 62
  256
370
   -1
100
AcDbLine
 10
183.6688829983251
 20
214.0194896221169
 11
183.6688829983251
 21
208.8194896221168
  0
LINE
  5
13C
100
AcDbEntity
  8
0
  6
ByLayer
 62
  256
370
   -1
100
AcDbLine
 10
186.8879314427696
 20
214.0194896221169
 11
186.1450709983251
 21
213.7718713998946
  0
LINE
  5
13D
100
AcDbEntity
  8
0
  6
ByLayer
 62
  256
370
   -1
100
AcDbLine
 10
186.1450709983251
 20
213.7718713998946
 11
185.6498351316584
 21
213.0290109554501
  0
LINE
  5
13E
100
AcDbEntity
  8
0
  6
ByLayer
 62
  256
370
   -1
100
AcDbLine
 10
185.6498351316584
 20
213.0290109554501
 11
185.4022163316584
 21
211.7909198443392
  0
LINE
  5
13F
100
AcDbEntity
  8
0
  6
ByLayer
 62
  256
370
   -1
100
AcDbLine
 10
185.4022163316584
 20
211.7909198443392
 11
185.4022163316584
 21
211.0480593998946
  0
LINE
  5
140
100
AcDbEntity
  8
0
  6
ByLayer
 62
  256
370
   -1
100
AcDbLine
 10
185.4022163316584
 20
211.0480593998946
 11
185.6498351316584
 21
209.8099682887836
  0
LINE
  5
141
100
AcDbEntity
  8
0
  6
ByLayer
 62
  256
370
   -1
100
AcDbLine
 10
185.6498351316584
 20
209.8099682887836
 11
186.1450709983251
 21
209.0671084221169
  0
LINE
  5
142
100
AcDbEntity
  8
0
  6
ByLayer
 62
  256
370
   -1
100
AcDbLine
 10
186.1450709983251
 20
209.0671084221169
 11
186.8879314427696
 21
208.8194896221168
  0
LINE
  5
143
100
AcDbEntity
  8
0
  6
ByLayer
 62
  256
370
   -1
100
AcDbLine
 10
186.8879314427696
 20
208.8194896221168
 11
187.383167887214
 21
208.8194896221168
  0
LINE
  5
144
100
AcDbEntity
  8
0
  6
ByLayer
 62
  256
370
   -1
100
AcDbLine
 10
187.383167887214
 20
208.8194896221168
 11
188.1260283316584
 21
209.0671084221169
  0
LINE
  5
145
100
AcDbEntity
  8
0
  6
ByLayer
 62
  256
370
   -1
100
AcDbLine
 10
188.1260283316584
 20
209.0671084221169
 11
188.6212647761029
 21
209.8099682887836
  0
LINE
  5
146
100
AcDbEntity
  8
0
  6
ByLayer
 62
  256
370
   -1
100
AcDbLine
 10
188.6212647761029
 20
209.8099682887836
 11
188.8688829983251
 21
211.0480593998946
  0
LINE
  5
147
100
AcDbEntity
  8
0
  6
ByLayer
 62
  256
370
   -1
100
AcDbLine
 10
188.8688829983251
 20
211.0480593998946
 11
188.8688829983251
 21
211.7909198443392
  0
LINE
  5
148
100
AcDbEntity
  8
0
  6
ByLayer
 62
  256
370
   -1
100
AcDbLine
 10
188.8688829983251
 20
211.7909198443392
 11
188.6212647761029
 21
213.0290109554501
  0
LINE
  5
149
100
AcDbEntity
  8
0
  6
ByLayer
 62
  256
370
   -1
100
AcDbLine
 10
188.6212647761029
 20
213.0290109554501
 11
188.1260283316584
 21
213.7718713998946
  0
LINE
  5
14A
100
AcDbEntity
  8
0
  6
ByLayer
 62
  256
370
   -1
100
AcDbLine
 10
188.1260283316584
 20
213.7718713998946
 11
187.383167887214
 21
214.0194896221169
  0
LINE
  5
14B
100
AcDbEntity
  8
0
  6
ByLayer
 62
  256
370
   -1
100
AcDbLine
 10
187.383167887214
 20
214.0194896221169
 11
186.8879314427696
 21
214.0194896221169
  0
LINE
  5
14C
100
AcDbEntity
  8
0
  6
ByLayer
 62
  256
370
   -1
100
AcDbLine
 10
155.682135106415
 20
213.0290109554501
 11
156.1773732841929
 21
213.2766349554501
  0
LINE
  5
14D
100
AcDbEntity
  8
0
  6
ByLayer
 62
  256
370
   -1
100
AcDbLine
 10
156.1773732841929
 20
213.2766349554501
 11
156.920231995304
 21
214.0194896221169
  0
LINE
  5
14E
100
AcDbEntity
  8
0
  6
ByLayer
 62
  256
370
   -1
100
AcDbLine
 10
156.920231995304
 20
214.0194896221169
 11
156.920231995304
 21
208.8194896221168
  0
LINE
  5
14F
100
AcDbEntity
  8
0
  6
ByLayer
 62
  256
370
   -1
100
AcDbLine
 10
158.6535653286373
 20
213.0290109554501
 11
159.148803506415
 21
213.2766349554501
  0
LINE
  5
150
100
AcDbEntity
  8
0
  6
ByLayer
 62
  256
370
   -1
100
AcDbLine
 10
159.148803506415
 20
213.2766349554501
 11
159.8916622175262
 21
214.0194896221169
  0
LINE
  5
151
100
AcDbEntity
  8
0
  6
ByLayer
 62
  256
370
   -1
100
AcDbLine
 10
159.8916622175262
 20
214.0194896221169
 11
159.8916622175262
 21
208.8194896221168
  0
LINE
  5
152
100
AcDbEntity
  8
0
  6
ByLayer
 62
  256
370
   -1
100
AcDbLine
 10
128.0270422198962
 20
213.0290109554501
 11
128.522280397674
 21
213.2766349554501
  0
LINE
  5
153
100
AcDbEntity
  8
0
  6
ByLayer
 62
  256
370
   -1
100
AcDbLine
 10
128.522280397674
 20
213.2766349554501
 11
129.2651391087851
 21
214.0194896221169
  0
LINE
  5
154
100
AcDbEntity
  8
0
  6
ByLayer
 62
  256
370
   -1
100
AcDbLine
 10
129.2651391087851
 20
214.0194896221169
 11
129.2651391087851
 21
208.8194896221168
  0
LINE
  5
155
100
AcDbEntity
  8
0
  6
ByLayer
 62
  256
370
   -1
100
AcDbLine
 10
131.2460912421184
 20
212.7813927332279
 11
131.2460912421184
 21
213.0290109554501
  0
LINE
  5
156
100
AcDbEntity
  8
0
  6
ByLayer
 62
  256
370
   -1
100
AcDbLine
 10
131.2460912421184
 20
213.0290109554501
 11
131.4937106198962
 21
213.5242531776724
  0
LINE
  5
157
100
AcDbEntity
  8
0
  6
ByLayer
 62
  256
370
   -1
100
AcDbLine
 10
131.4937106198962
 20
213.5242531776724
 11
131.7413271087851
 21
213.7718713998946
  0
LINE
  5
158
100
AcDbEntity
  8
0
  6
ByLayer
 62
  256
370
   -1
100
AcDbLine
 10
131.7413271087851
 20
213.7718713998946
 11
132.2365693310073
 21
214.0194896221169
  0
LINE
  5
159
100
AcDbEntity
  8
0
  6
ByLayer
 62
  256
370
   -1
100
AcDbLine
 10
132.2365693310073
 20
214.0194896221169
 11
133.2270422198962
 21
214.0194896221169
  0
LINE
  5
15A
100
AcDbEntity
  8
0
  6
ByLayer
 62
  256
370
   -1
100
AcDbLine
 10
133.2270422198962
 20
214.0194896221169
 11
133.7222844421184
 21
213.7718713998946
  0
LINE
  5
15B
100
AcDbEntity
  8
0
  6
ByLayer
 62
  256
370
   -1
100
AcDbLine
 10
133.7222844421184
 20
213.7718713998946
 11
133.9699026643406
 21
213.5242531776724
  0
LINE
  5
15C
100
AcDbEntity
  8
0
  6
ByLayer
 62
  256
370
   -1
100
AcDbLine
 10
133.9699026643406
 20
213.5242531776724
 11
134.2175208865629
 21
213.0290109554501
  0
LINE
  5
15D
100
AcDbEntity
  8
0
  6
ByLayer
 62
  256
370
   -1
100
AcDbLine
 10
134.2175208865629
 20
213.0290109554501
 11
134.2175208865629
 21
212.5337745110058
  0
LINE
  5
15E
100
AcDbEntity
  8
0
  6
ByLayer
 62
  256
370
   -1
100
AcDbLine
 10
134.2175208865629
 20
212.5337745110058
 11
133.9699026643406
 21
212.0385380665614
  0
LINE
  5
15F
100
AcDbEntity
  8
0
  6
ByLayer
 62
  256
370
   -1
100
AcDbLine
 10
133.9699026643406
 20
212.0385380665614
 11
133.4746604421184
 21
211.2956776221168
  0
LINE
  5
160
100
AcDbEntity
  8
0
  6
ByLayer
 62
  256
370
   -1
100
AcDbLine
 10
133.4746604421184
 20
211.2956776221168
 11
130.9984724421184
 21
208.8194896221168
  0
LINE
  5
161
100
AcDbEntity
  8
0
  6
ByLayer
 62
  256
370
   -1
100
AcDbLine
 10
130.9984724421184
 20
208.8194896221168
 11
134.4651391087851
 21
208.8194896221168
  0
LINE
  5
162
100
AcDbEntity
  8
0
  6
ByLayer
 62
  256
370
   -1
100
AcDbLine
 10
100.572027762683
 20
213.0290109554501
 11
101.0672659404608
 21
213.2766349554501
  0
LINE
  5
163
100
AcDbEntity
  8
0
  6
ByLayer
 62
  256
370
   -1
100
AcDbLine
 10
101.0672659404608
 20
213.2766349554501
 11
101.8101246515719
 21
214.0194896221169
  0
LINE
  5
164
100
AcDbEntity
  8
0
  6
ByLayer
 62
  256
370
   -1
100
AcDbLine
 10
101.8101246515719
 20
214.0194896221169
 11
101.8101246515719
 21
208.8194896221168
  0
LINE
  5
165
100
AcDbEntity
  8
0
  6
ByLayer
 62
  256
370
   -1
100
AcDbLine
 10
104.038696162683
 20
214.0194896221169
 11
106.7625064293497
 21
214.0194896221169
  0
LINE
  5
166
100
AcDbEntity
  8
0
  6
ByLayer
 62
  256
370
   -1
100
AcDbLine
 10
106.7625064293497
 20
214.0194896221169
 11
105.2767913182386
 21
212.0385380665614
  0
LINE
  5
167
100
AcDbEntity
  8
0
  6
ByLayer
 62
  256
370
   -1
100
AcDbLine
 10
105.2767913182386
 20
212.0385380665614
 11
106.0196459849053
 21
212.0385380665614
  0
LINE
  5
168
100
AcDbEntity
  8
0
  6
ByLayer
 62
  256
370
   -1
100
AcDbLine
 10
106.0196459849053
 20
212.0385380665614
 11
106.5148882071275
 21
211.7909198443392
  0
LINE
  5
169
100
AcDbEntity
  8
0
  6
ByLayer
 62
  256
370
   -1
100
AcDbLine
 10
106.5148882071275
 20
211.7909198443392
 11
106.7625064293497
 21
211.5433016221168
  0
LINE
  5
16A
100
AcDbEntity
  8
0
  6
ByLayer
 62
  256
370
   -1
100
AcDbLine
 10
106.7625064293497
 20
211.5433016221168
 11
107.0101246515719
 21
210.8004411776724
  0
LINE
  5
16B
100
AcDbEntity
  8
0
  6
ByLayer
 62
  256
370
   -1
100
AcDbLine
 10
107.0101246515719
 20
210.8004411776724
 11
107.0101246515719
 21
210.305204733228
  0
LINE
  5
16C
100
AcDbEntity
  8
0
  6
ByLayer
 62
  256
370
   -1
100
AcDbLine
 10
107.0101246515719
 20
210.305204733228
 11
106.7625064293497
 21
209.5623442887835
  0
LINE
  5
16D
100
AcDbEntity
  8
0
  6
ByLayer
 62
  256
370
   -1
100
AcDbLine
 10
106.7625064293497
 20
209.5623442887835
 11
106.2672699849053
 21
209.0671084221169
  0
LINE
  5
16E
100
AcDbEntity
  8
0
  6
ByLayer
 62
  256
370
   -1
100
AcDbLine
 10
106.2672699849053
 20
209.0671084221169
 11
105.5244095404608
 21
208.8194896221168
  0
LINE
  5
16F
100
AcDbEntity
  8
0
  6
ByLayer
 62
  256
370
   -1
100
AcDbLine
 10
105.5244095404608
 20
208.8194896221168
 11
104.7815548737942
 21
208.8194896221168
  0
LINE
  5
170
100
AcDbEntity
  8
0
  6
ByLayer
 62
  256
370
   -1
100
AcDbLine
 10
104.7815548737942
 20
208.8194896221168
 11
104.038696162683
 21
209.0671084221169
  0
LINE
  5
171
100
AcDbEntity
  8
0
  6
ByLayer
 62
  256
370
   -1
100
AcDbLine
 10
104.038696162683
 20
209.0671084221169
 11
103.7910767849053
 21
209.3147277998947
  0
LINE
  5
172
100
AcDbEntity
  8
0
  6
ByLayer
 62
  256
370
   -1
100
AcDbLine
 10
103.7910767849053
 20
209.3147277998947
 11
103.5434579849053
 21
209.8099682887836
  0
LINE
  5
173
100
AcDbEntity
  8
0
  6
ByLayer
 62
  256
370
   -1
100
AcDbLine
 10
73.26780581322413
 20
213.0290109554501
 11
73.76304399100191
 21
213.2766349554501
  0
LINE
  5
174
100
AcDbEntity
  8
0
  6
ByLayer
 62
  256
370
   -1
100
AcDbLine
 10
73.76304399100191
 20
213.2766349554501
 11
74.50590270211302
 21
214.0194896221169
  0
LINE
  5
175
100
AcDbEntity
  8
0
  6
ByLayer
 62
  256
370
   -1
100
AcDbLine
 10
74.50590270211302
 20
214.0194896221169
 11
74.50590270211302
 21
208.8194896221168
  0
LINE
  5
176
100
AcDbEntity
  8
0
  6
ByLayer
 62
  256
370
   -1
100
AcDbLine
 10
78.71542403544636
 20
214.0194896221169
 11
76.23923603544635
 21
210.5528229554502
  0
LINE
  5
177
100
AcDbEntity
  8
0
  6
ByLayer
 62
  256
370
   -1
100
AcDbLine
 10
76.23923603544635
 20
210.5528229554502
 11
79.95352092433522
 21
210.5528229554502
  0
LINE
  5
178
100
AcDbEntity
  8
0
  6
ByLayer
 62
  256
370
   -1
100
AcDbLine
 10
78.71542403544636
 20
214.0194896221169
 11
78.71542403544636
 21
208.8194896221168
  0
LINE
  5
179
100
AcDbEntity
  8
0
  6
ByLayer
 62
  256
370
   -1
100
AcDbLine
 10
214.4242374840871
 20
212.2861562887836
 11
214.1766192618649
 21
211.5433016221168
  0
LINE
  5
17A
100
AcDbEntity
  8
0
  6
ByLayer
 62
  256
370
   -1
100
AcDbLine
 10
214.1766192618649
 20
211.5433016221168
 11
213.6813770396427
 21
211.0480593998946
  0
LINE
  5
17B
100
AcDbEntity
  8
0
  6
ByLayer
 62
  256
370
   -1
100
AcDbLine
 10
213.6813770396427
 20
211.0480593998946
 11
212.938522372976
 21
210.8004411776724
  0
LINE
  5
17C
100
AcDbEntity
  8
0
  6
ByLayer
 62
  256
370
   -1
100
AcDbLine
 10
212.938522372976
 20
210.8004411776724
 11
212.6909041507538
 21
210.8004411776724
  0
LINE
  5
17D
100
AcDbEntity
  8
0
  6
ByLayer
 62
  256
370
   -1
100
AcDbLine
 10
212.6909041507538
 20
210.8004411776724
 11
211.9480437063093
 21
211.0480593998946
  0
LINE
  5
17E
100
AcDbEntity
  8
0
  6
ByLayer
 62
  256
370
   -1
100
AcDbLine
 10
211.9480437063093
 20
211.0480593998946
 11
211.4528078396427
 21
211.5433016221168
  0
LINE
  5
17F
100
AcDbEntity
  8
0
  6
ByLayer
 62
  256
370
   -1
100
AcDbLine
 10
211.4528078396427
 20
211.5433016221168
 11
211.2051890396427
 21
212.2861562887836
  0
LINE
  5
180
100
AcDbEntity
  8
0
  6
ByLayer
 62
  256
370
   -1
100
AcDbLine
 10
211.2051890396427
 20
212.2861562887836
 11
211.2051890396427
 21
212.5337745110058
  0
LINE
  5
181
100
AcDbEntity
  8
0
  6
ByLayer
 62
  256
370
   -1
100
AcDbLine
 10
211.2051890396427
 20
212.5337745110058
 11
211.4528078396427
 21
213.2766349554501
  0
LINE
  5
182
100
AcDbEntity
  8
0
  6
ByLayer
 62
  256
370
   -1
100
AcDbLine
 10
211.4528078396427
 20
213.2766349554501
 11
211.9480437063093
 21
213.7718713998946
  0
LINE
  5
183
100
AcDbEntity
  8
0
  6
ByLayer
 62
  256
370
   -1
100
AcDbLine
 10
211.9480437063093
 20
213.7718713998946
 11
212.6909041507538
 21
214.0194896221169
  0
LINE
  5
184
100
AcDbEntity
  8
0
  6
ByLayer
 62
  256
370
   -1
100
AcDbLine
 10
212.6909041507538
 20
214.0194896221169
 11
212.938522372976
 21
214.0194896221169
  0
LINE
  5
185
100
AcDbEntity
  8
0
  6
ByLayer
 62
  256
370
   -1
100
AcDbLine
 10
212.938522372976
 20
214.0194896221169
 11
213.6813770396427
 21
213.7718713998946
  0
LINE
  5
186
100
AcDbEntity
  8
0
  6
ByLayer
 62
  256
370
   -1
100
AcDbLine
 10
213.6813770396427
 20
213.7718713998946
 11
214.1766192618649
 21
213.2766349554501
  0
LINE
  5
187
100
AcDbEntity
  8
0
  6
ByLayer
 62
  256
370
   -1
100
AcDbLine
 10
214.1766192618649
 20
213.2766349554501
 11
214.4242374840871
 21
212.2861562887836
  0
LINE
  5
188
100
AcDbEntity
  8
0
  6
ByLayer
 62
  256
370
   -1
100
AcDbLine
 10
214.4242374840871
 20
212.2861562887836
 11
214.4242374840871
 21
211.0480593998946
  0
LINE
  5
189
100
AcDbEntity
  8
0
  6
ByLayer
 62
  256
370
   -1
100
AcDbLine
 10
214.4242374840871
 20
211.0480593998946
 11
214.1766192618649
 21
209.8099682887836
  0
LINE
  5
18A
100
AcDbEntity
  8
0
  6
ByLayer
 62
  256
370
   -1
100
AcDbLine
 10
214.1766192618649
 20
209.8099682887836
 11
213.6813770396427
 21
209.0671084221169
  0
LINE
  5
18B
100
AcDbEntity
  8
0
  6
ByLayer
 62
  256
370
   -1
100
AcDbLine
 10
213.6813770396427
 20
209.0671084221169
 11
212.938522372976
 21
208.8194896221168
  0
LINE
  5
18C
100
AcDbEntity
  8
0
  6
ByLayer
 62
  256
370
   -1
100
AcDbLine
 10
212.938522372976
 20
208.8194896221168
 11
212.4432859285316
 21
208.8194896221168
  0
LINE
  5
18D
100
AcDbEntity
  8
0
  6
ByLayer
 62
  256
370
   -1
100
AcDbLine
 10
212.4432859285316
 20
208.8194896221168
 11
211.7004272174204
 21
209.0671084221169
  0
LINE
  5
18E
100
AcDbEntity
  8
0
  6
ByLayer
 62
  256
370
   -1
100
AcDbLine
 10
211.7004272174204
 20
209.0671084221169
 11
211.4528078396427
 21
209.5623442887835
  0
LINE
  5
18F
100
AcDbEntity
  8
0
  6
ByLayer
 62
  256
370
   -1
100
AcDbLine
 10
211.2382786223183
 20
171.4027666666667
 11
211.2382786223183
 21
138.7139833333333
  0
LINE
  5
190
100
AcDbEntity
  8
0
  6
ByLayer
 62
  256
370
   -1
100
AcDbLine
 10
23.41897862231833
 20
171.4027666666667
 11
23.41897862231833
 21
138.7139833333333
  0
LINE
  5
191
100
AcDbEntity
  8
0
  6
ByLayer
 62
  256
370
   -1
100
AcDbLine
 10
49.07862862231832
 20
204.0915
 11
49.07862862231832
 21
193.7471333333333
  0
LINE
  5
192
100
AcDbEntity
  8
0
  6
ByLayer
 62
  256
370
   -1
100
AcDbLine
 10
103.6786286223183
 20
204.0915
 11
103.6786286223183
 21
193.7471333333333
  0
LINE
  5
193
100
AcDbEntity
  8
0
  6
ByLayer
 62
  256
370
   -1
100
AcDbLine
 10
76.37862862231833
 20
204.0915
 11
76.37862862231833
 21
193.7471333333333
  0
LINE
  5
194
100
AcDbEntity
  8
0
  6
ByLayer
 62
  256
370
   -1
100
AcDbLine
 10
130.9786286223183
 20
204.0915
 11
130.9786286223183
 21
193.7471333333333
  0
LINE
  5
195
100
AcDbEntity
  8
0
  6
ByLayer
 62
  256
370
   -1
100
AcDbLine
 10
158.2786286223183
 20
204.0915
 11
158.2786286223183
 21
193.7471333333333
  0
LINE
  5
196
100
AcDbEntity
  8
0
  6
ByLayer
 62
  256
370
   -1
100
AcDbLine
 10
185.5786286223183
 20
204.0915
 11
185.5786286223183
 21
193.7471333333333
  0
LINE
  5
197
100
AcDbEntity
  8
0
  6
ByLayer
 62
  256
370
   -1
100
AcDbLine
 10
212.8786286223183
 20
204.0915000000001
 11
212.8786286223182
 21
193.7471333333333
  0
LINE
  5
198
100
AcDbEntity
  8
0
  6
ByLayer
 62
  256
370
   -1
100
AcDbLine
 10
21.77862862231842
 20
106.02525
 11
21.77862862231842
 21
116.3696166666667
  0
LINE
  5
199
100
AcDbEntity
  8
0
  6
ByLayer
 62
  256
370
   -1
100
AcDbLine
 10
76.37862862231833
 20
106.02525
 11
76.37862862231832
 21
116.3696166666667
  0
LINE
  5
19A
100
AcDbEntity
  8
0
  6
ByLayer
 62
  256
370
   -1
100
AcDbLine
 10
49.07862862231838
 20
106.02525
 11
49.07862862231838
 21
116.3696166666667
  0
LINE
  5
19B
100
AcDbEntity
  8
0
  6
ByLayer
 62
  256
370
   -1
100
AcDbLine
 10
103.6786286223183
 20
106.02525
 11
103.6786286223183
 21
116.3696166666667
  0
LINE
  5
19C
100
AcDbEntity
  8
0
  6
ByLayer
 62
  256
370
   -1
100
AcDbLine
 10
130.9786286223184
 20
106.02525
 11
130.9786286223184
 21
116.3696166666667
  0
LINE
  5
19D
100
AcDbEntity
  8
0
  6
ByLayer
 62
  256
370
   -1
100
AcDbLine
 10
158.2786286223183
 20
106.02525
 11
158.2786286223183
 21
116.3696166666667
  0
LINE
  5
19E
100
AcDbEntity
  8
0
  6
ByLayer
 62
  256
370
   -1
100
AcDbLine
 10
185.5786286223183
 20
106.02525
 11
185.5786286223183
 21
116.3696166666667
  0
LINE
  5
19F
100
AcDbEntity
  8
0
  6
ByLayer
 62
  256
370
   -1
100
AcDbLine
 10
170.9912857651755
 20
128.3696166666667
 11
158.2786286223183
 21
116.3696166666667
  0
LINE
  5
1A0
100
AcDbEntity
  8
0
  6
ByLayer
 62
  256
370
   -1
100
AcDbLine
 10
144.1599571937469
 20
128.3696166666667
 11
130.9786286223184
 21
116.3696166666667
  0
LINE
  5
1A1
100
AcDbEntity
  8
0
  6
ByLayer
 62
  256
370
   -1
100
AcDbLine
 10
117.3286286223184
 20
128.3696166666667
 11
103.6786286223183
 21
116.3696166666667
  0
LINE
  5
1A2
100
AcDbEntity
  8
0
  6
ByLayer
 62
  256
370
   -1
100
AcDbLine
 10
90.49730005088976
 20
128.3696166666667
 11
76.37862862231832
 21
116.3696166666667
  0
LINE
  5
1A3
100
AcDbEntity
  8
0
  6
ByLayer
 62
  256
370
   -1
100
AcDbLine
 10
63.66597147946116
 20
128.3696166666667
 11
49.07862862231838
 21
116.3696166666667
  0
LINE
  5
1A4
100
AcDbEntity
  8
0
  6
ByLayer
 62
  256
370
   -1
100
AcDbLine
 10
36.83464290803259
 20
128.3696166666667
 11
21.77862862231842
 21
116.3696166666667
  0
LINE
  5
1A5
100
AcDbEntity
  8
0
  6
ByLayer
 62
  256
370
   -1
100
AcDbLine
 10
45.83699531039318
 20
213.0290109554501
 11
46.33223348817096
 21
213.2766349554501
  0
LINE
  5
1A6
100
AcDbEntity
  8
0
  6
ByLayer
 62
  256
370
   -1
100
AcDbLine
 10
46.33223348817096
 20
213.2766349554501
 11
47.07509219928208
 21
214.0194896221168
  0
LINE
  5
1A7
100
AcDbEntity
  8
0
  6
ByLayer
 62
  256
370
   -1
100
AcDbLine
 10
47.07509219928208
 20
214.0194896221168
 11
47.07509219928208
 21
208.8194896221168
  0
LINE
  5
1A8
100
AcDbEntity
  8
0
  6
ByLayer
 62
  256
370
   -1
100
AcDbLine
 10
51.77985575483763
 20
214.0194896221168
 11
49.30366371039319
 21
214.0194896221168
  0
LINE
  5
1A9
100
AcDbEntity
  8
0
  6
ByLayer
 62
  256
370
   -1
100
AcDbLine
 10
49.30366371039319
 20
214.0194896221168
 11
49.05604433261541
 21
211.790919844339
  0
LINE
  5
1AA
100
AcDbEntity
  8
0
  6
ByLayer
 62
  256
370
   -1
100
AcDbLine
 10
49.05604433261541
 20
211.790919844339
 11
49.30366371039319
 21
212.0385380665612
  0
LINE
  5
1AB
100
AcDbEntity
  8
0
  6
ByLayer
 62
  256
370
   -1
100
AcDbLine
 10
49.30366371039319
 20
212.0385380665612
 11
50.0465224215043
 21
212.2861562887835
  0
LINE
  5
1AC
100
AcDbEntity
  8
0
  6
ByLayer
 62
  256
370
   -1
100
AcDbLine
 10
50.0465224215043
 20
212.2861562887835
 11
50.78937708817097
 21
212.2861562887835
  0
LINE
  5
1AD
100
AcDbEntity
  8
0
  6
ByLayer
 62
  256
370
   -1
100
AcDbLine
 10
50.78937708817097
 20
212.2861562887835
 11
51.53223753261541
 21
212.0385380665612
  0
LINE
  5
1AE
100
AcDbEntity
  8
0
  6
ByLayer
 62
  256
370
   -1
100
AcDbLine
 10
51.53223753261541
 20
212.0385380665612
 11
52.02747397705986
 21
211.5433016221168
  0
LINE
  5
1AF
100
AcDbEntity
  8
0
  6
ByLayer
 62
  256
370
   -1
100
AcDbLine
 10
52.02747397705986
 20
211.5433016221168
 11
52.27509219928208
 21
210.8004411776724
  0
LINE
  5
1B0
100
AcDbEntity
  8
0
  6
ByLayer
 62
  256
370
   -1
100
AcDbLine
 10
52.27509219928208
 20
210.8004411776724
 11
52.27509219928208
 21
210.3052047332279
  0
LINE
  5
1B1
100
AcDbEntity
  8
0
  6
ByLayer
 62
  256
370
   -1
100
AcDbLine
 10
52.27509219928208
 20
210.3052047332279
 11
52.02747397705986
 21
209.5623442887835
  0
LINE
  5
1B2
100
AcDbEntity
  8
0
  6
ByLayer
 62
  256
370
   -1
100
AcDbLine
 10
52.02747397705986
 20
209.5623442887835
 11
51.53223753261541
 21
209.0671084221168
  0
LINE
  5
1B3
100
AcDbEntity
  8
0
  6
ByLayer
 62
  256
370
   -1
100
AcDbLine
 10
51.53223753261541
 20
209.0671084221168
 11
50.78937708817097
 21
208.8194896221168
  0
LINE
  5
1B4
100
AcDbEntity
  8
0
  6
ByLayer
 62
  256
370
   -1
100
AcDbLine
 10
50.78937708817097
 20
208.8194896221168
 11
50.0465224215043
 21
208.8194896221168
  0
LINE
  5
1B5
100
AcDbEntity
  8
0
  6
ByLayer
 62
  256
370
   -1
100
AcDbLine
 10
50.0465224215043
 20
208.8194896221168
 11
49.30366371039319
 21
209.0671084221168
  0
LINE
  5
1B6
100
AcDbEntity
  8
0
  6
ByLayer
 62
  256
370
   -1
100
AcDbLine
 10
49.30366371039319
 20
209.0671084221168
 11
49.05604433261541
 21
209.3147277998946
  0
LINE
  5
1B7
100
AcDbEntity
  8
0
  6
ByLayer
 62
  256
370
   -1
100
AcDbLine
 10
49.05604433261541
 20
209.3147277998946
 11
48.80842553261541
 21
209.8099682887835
  0
LINE
  5
1B8
100
AcDbEntity
  8
0
  6
ByLayer
 62
  256
370
   -1
100
AcDbLine
 10
18.83442168587736
 20
213.0290109554501
 11
19.32965986365514
 21
213.2766349554501
  0
LINE
  5
1B9
100
AcDbEntity
  8
0
  6
ByLayer
 62
  256
370
   -1
100
AcDbLine
 10
19.32965986365514
 20
213.2766349554501
 11
20.07251857476625
 21
214.0194896221168
  0
LINE
  5
1BA
100
AcDbEntity
  8
0
  6
ByLayer
 62
  256
370
   -1
100
AcDbLine
 10
20.07251857476625
 20
214.0194896221168
 11
20.07251857476625
 21
208.8194896221168
  0
LINE
  5
1BB
100
AcDbEntity
  8
0
  6
ByLayer
 62
  256
370
   -1
100
AcDbLine
 10
24.7772821303218
 20
213.2766349554501
 11
24.52966390809958
 21
213.7718713998946
  0
LINE
  5
1BC
100
AcDbEntity
  8
0
  6
ByLayer
 62
  256
370
   -1
100
AcDbLine
 10
24.52966390809958
 20
213.7718713998946
 11
23.78680346365514
 21
214.0194896221168
  0
LINE
  5
1BD
100
AcDbEntity
  8
0
  6
ByLayer
 62
  256
370
   -1
100
AcDbLine
 10
23.78680346365514
 20
214.0194896221168
 11
23.2915670192107
 21
214.0194896221168
  0
LINE
  5
1BE
100
AcDbEntity
  8
0
  6
ByLayer
 62
  256
370
   -1
100
AcDbLine
 10
23.2915670192107
 20
214.0194896221168
 11
22.54870657476625
 21
213.7718713998946
  0
LINE
  5
1BF
100
AcDbEntity
  8
0
  6
ByLayer
 62
  256
370
   -1
100
AcDbLine
 10
22.54870657476625
 20
213.7718713998946
 11
22.05347070809959
 21
213.0290109554501
  0
LINE
  5
1C0
100
AcDbEntity
  8
0
  6
ByLayer
 62
  256
370
   -1
100
AcDbLine
 10
22.05347070809959
 20
213.0290109554501
 11
21.80585190809958
 21
211.790919844339
  0
LINE
  5
1C1
100
AcDbEntity
  8
0
  6
ByLayer
 62
  256
370
   -1
100
AcDbLine
 10
21.80585190809958
 20
211.790919844339
 11
21.80585190809958
 21
210.5528229554501
  0
LINE
  5
1C2
100
AcDbEntity
  8
0
  6
ByLayer
 62
  256
370
   -1
100
AcDbLine
 10
21.80585190809958
 20
210.5528229554501
 11
22.05347070809959
 21
209.5623442887835
  0
LINE
  5
1C3
100
AcDbEntity
  8
0
  6
ByLayer
 62
  256
370
   -1
100
AcDbLine
 10
22.05347070809959
 20
209.5623442887835
 11
22.54870657476625
 21
209.0671084221168
  0
LINE
  5
1C4
100
AcDbEntity
  8
0
  6
ByLayer
 62
  256
370
   -1
100
AcDbLine
 10
22.54870657476625
 20
209.0671084221168
 11
23.2915670192107
 21
208.8194896221168
  0
LINE
  5
1C5
100
AcDbEntity
  8
0
  6
ByLayer
 62
  256
370
   -1
100
AcDbLine
 10
23.2915670192107
 20
208.8194896221168
 11
23.53918524143292
 21
208.8194896221168
  0
LINE
  5
1C6
100
AcDbEntity
  8
0
  6
ByLayer
 62
  256
370
   -1
100
AcDbLine
 10
23.53918524143292
 20
208.8194896221168
 11
24.28203990809958
 21
209.0671084221168
  0
LINE
  5
1C7
100
AcDbEntity
  8
0
  6
ByLayer
 62
  256
370
   -1
100
AcDbLine
 10
24.28203990809958
 20
209.0671084221168
 11
24.7772821303218
 21
209.5623442887835
  0
LINE
  5
1C8
100
AcDbEntity
  8
0
  6
ByLayer
 62
  256
370
   -1
100
AcDbLine
 10
24.7772821303218
 20
209.5623442887835
 11
25.02490035254403
 21
210.3052047332279
  0
LINE
  5
1C9
100
AcDbEntity
  8
0
  6
ByLayer
 62
  256
370
   -1
100
AcDbLine
 10
25.02490035254403
 20
210.3052047332279
 11
25.02490035254403
 21
210.5528229554501
  0
LINE
  5
1CA
100
AcDbEntity
  8
0
  6
ByLayer
 62
  256
370
   -1
100
AcDbLine
 10
25.02490035254403
 20
210.5528229554501
 11
24.7772821303218
 21
211.2956776221168
  0
LINE
  5
1CB
100
AcDbEntity
  8
0
  6
ByLayer
 62
  256
370
   -1
100
AcDbLine
 10
24.7772821303218
 20
211.2956776221168
 11
24.28203990809958
 21
211.790919844339
  0
LINE
  5
1CC
100
AcDbEntity
  8
0
  6
ByLayer
 62
  256
370
   -1
100
AcDbLine
 10
24.28203990809958
 20
211.790919844339
 11
23.53918524143292
 21
212.0385380665612
  0
LINE
  5
1CD
100
AcDbEntity
  8
0
  6
ByLayer
 62
  256
370
   -1
100
AcDbLine
 10
23.53918524143292
 20
212.0385380665612
 11
23.2915670192107
 21
212.0385380665612
  0
LINE
  5
1CE
100
AcDbEntity
  8
0
  6
ByLayer
 62
  256
370
   -1
100
AcDbLine
 10
23.2915670192107
 20
212.0385380665612
 11
22.54870657476625
 21
211.790919844339
  0
LINE
  5
1CF
100
AcDbEntity
  8
0
  6
ByLayer
 62
  256
370
   -1
100
AcDbLine
 10
22.54870657476625
 20
211.790919844339
 11
22.05347070809959
 21
211.2956776221168
  0
LINE
  5
1D0
100
AcDbEntity
  8
0
  6
ByLayer
 62
  256
370
   -1
100
AcDbLine
 10
22.05347070809959
 20
211.2956776221168
 11
21.80585190809958
 21
210.5528229554501
  0
LINE
  5
1D1
100
AcDbEntity
  8
0
  6
ByLayer
 62
  256
370
   -1
100
AcDbLine
 10
43.43954698213338
 20
227.3229
 11
45.42049853768894
 21
224.846712
  0
LINE
  5
1D2
100
AcDbEntity
  8
0
  6
ByLayer
 62
  256
370
   -1
100
AcDbLine
 10
45.42049853768894
 20
224.846712
 11
45.42049853768894
 21
222.1229
  0
LINE
  5
1D3
100
AcDbEntity
  8
0
  6
ByLayer
 62
  256
370
   -1
100
AcDbLine
 10
47.40145009324449
 20
227.3229
 11
45.42049853768894
 21
224.846712
  0
LINE
  5
1D4
100
AcDbEntity
  8
0
  6
ByLayer
 62
  256
370
   -1
100
AcDbLine
 10
50.62049853768894
 20
227.3229
 11
49.87763809324449
 21
227.0752817777778
  0
LINE
  5
1D5
100
AcDbEntity
  8
0
  6
ByLayer
 62
  256
370
   -1
100
AcDbLine
 10
49.87763809324449
 20
227.0752817777778
 11
49.38240222657782
 21
226.3324213333333
  0
LINE
  5
1D6
100
AcDbEntity
  8
0
  6
ByLayer
 62
  256
370
   -1
100
AcDbLine
 10
49.38240222657782
 20
226.3324213333333
 11
49.13478342657783
 21
225.0943302222222
  0
LINE
  5
1D7
100
AcDbEntity
  8
0
  6
ByLayer
 62
  256
370
   -1
100
AcDbLine
 10
49.13478342657783
 20
225.0943302222222
 11
49.13478342657783
 21
224.3514697777778
  0
LINE
  5
1D8
100
AcDbEntity
  8
0
  6
ByLayer
 62
  256
370
   -1
100
AcDbLine
 10
49.13478342657783
 20
224.3514697777778
 11
49.38240222657782
 21
223.1133786666666
  0
LINE
  5
1D9
100
AcDbEntity
  8
0
  6
ByLayer
 62
  256
370
   -1
100
AcDbLine
 10
49.38240222657782
 20
223.1133786666666
 11
49.87763809324449
 21
222.3705188
  0
LINE
  5
1DA
100
AcDbEntity
  8
0
  6
ByLayer
 62
  256
370
   -1
100
AcDbLine
 10
49.87763809324449
 20
222.3705188
 11
50.62049853768894
 21
222.1229
  0
LINE
  5
1DB
100
AcDbEntity
  8
0
  6
ByLayer
 62
  256
370
   -1
100
AcDbLine
 10
50.62049853768894
 20
222.1229
 11
51.11573498213338
 21
222.1229
  0
LINE
  5
1DC
100
AcDbEntity
  8
0
  6
ByLayer
 62
  256
370
   -1
100
AcDbLine
 10
51.11573498213338
 20
222.1229
 11
51.85859542657783
 21
222.3705188
  0
LINE
  5
1DD
100
AcDbEntity
  8
0
  6
ByLayer
 62
  256
370
   -1
100
AcDbLine
 10
51.85859542657783
 20
222.3705188
 11
52.35383187102227
 21
223.1133786666666
  0
LINE
  5
1DE
100
AcDbEntity
  8
0
  6
ByLayer
 62
  256
370
   -1
100
AcDbLine
 10
52.35383187102227
 20
223.1133786666666
 11
52.60145009324449
 21
224.3514697777778
  0
LINE
  5
1DF
100
AcDbEntity
  8
0
  6
ByLayer
 62
  256
370
   -1
100
AcDbLine
 10
52.60145009324449
 20
224.3514697777778
 11
52.60145009324449
 21
225.0943302222222
  0
LINE
  5
1E0
100
AcDbEntity
  8
0
  6
ByLayer
 62
  256
370
   -1
100
AcDbLine
 10
52.60145009324449
 20
225.0943302222222
 11
52.35383187102227
 21
226.3324213333333
  0
LINE
  5
1E1
100
AcDbEntity
  8
0
  6
ByLayer
 62
  256
370
   -1
100
AcDbLine
 10
52.35383187102227
 20
226.3324213333333
 11
51.85859542657783
 21
227.0752817777778
  0
LINE
  5
1E2
100
AcDbEntity
  8
0
  6
ByLayer
 62
  256
370
   -1
100
AcDbLine
 10
51.85859542657783
 20
227.0752817777778
 11
51.11573498213338
 21
227.3229
  0
LINE
  5
1E3
100
AcDbEntity
  8
0
  6
ByLayer
 62
  256
370
   -1
100
AcDbLine
 10
51.11573498213338
 20
227.3229
 11
50.62049853768894
 21
227.3229
  0
LINE
  5
1E4
100
AcDbEntity
  8
0
  6
ByLayer
 62
  256
370
   -1
100
AcDbLine
 10
71.89293363130437
 20
227.3229
 11
73.87388518685992
 21
224.846712
  0
LINE
  5
1E5
100
AcDbEntity
  8
0
  6
ByLayer
 62
  256
370
   -1
100
AcDbLine
 10
73.87388518685992
 20
224.846712
 11
73.87388518685992
 21
222.1229
  0
LINE
  5
1E6
100
AcDbEntity
  8
0
  6
ByLayer
 62
  256
370
   -1
100
AcDbLine
 10
75.85483674241549
 20
227.3229
 11
73.87388518685992
 21
224.846712
  0
LINE
  5
1E7
100
AcDbEntity
  8
0
  6
ByLayer
 62
  256
370
   -1
100
AcDbLine
 10
77.58817007574882
 20
226.3324213333333
 11
78.0834082535266
 21
226.5800453333333
  0
LINE
  5
1E8
100
AcDbEntity
  8
0
  6
ByLayer
 62
  256
370
   -1
100
AcDbLine
 10
78.0834082535266
 20
226.5800453333333
 11
78.82626696463771
 21
227.3229
  0
LINE
  5
1E9
100
AcDbEntity
  8
0
  6
ByLayer
 62
  256
370
   -1
100
AcDbLine
 10
78.82626696463771
 20
227.3229
 11
78.82626696463771
 21
222.1229
  0
LINE
  5
1EA
100
AcDbEntity
  8
0
  6
ByLayer
 62
  256
370
   -1
100
AcDbLine
 10
99.29249114532095
 20
227.3229
 11
101.2734427008765
 21
224.846712
  0
LINE
  5
1EB
100
AcDbEntity
  8
0
  6
ByLayer
 62
  256
370
   -1
100
AcDbLine
 10
101.2734427008765
 20
224.846712
 11
101.2734427008765
 21
222.1229
  0
LINE
  5
1EC
100
AcDbEntity
  8
0
  6
ByLayer
 62
  256
370
   -1
100
AcDbLine
 10
103.2543942564321
 20
227.3229
 11
101.2734427008765
 21
224.846712
  0
LINE
  5
1ED
100
AcDbEntity
  8
0
  6
ByLayer
 62
  256
370
   -1
100
AcDbLine
 10
105.2353463897654
 20
226.0848031111111
 11
105.2353463897654
 21
226.3324213333333
  0
LINE
  5
1EE
100
AcDbEntity
  8
0
  6
ByLayer
 62
  256
370
   -1
100
AcDbLine
 10
105.2353463897654
 20
226.3324213333333
 11
105.4829657675432
 21
226.8276635555555
  0
LINE
  5
1EF
100
AcDbEntity
  8
0
  6
ByLayer
 62
  256
370
   -1
100
AcDbLine
 10
105.4829657675432
 20
226.8276635555555
 11
105.7305822564321
 21
227.0752817777778
  0
LINE
  5
1F0
100
AcDbEntity
  8
0
  6
ByLayer
 62
  256
370
   -1
100
AcDbLine
 10
105.7305822564321
 20
227.0752817777778
 11
106.2258244786543
 21
227.3229
  0
LINE
  5
1F1
100
AcDbEntity
  8
0
  6
ByLayer
 62
  256
370
   -1
100
AcDbLine
 10
106.2258244786543
 20
227.3229
 11
107.2162973675432
 21
227.3229
  0
LINE
  5
1F2
100
AcDbEntity
  8
0
  6
ByLayer
 62
  256
370
   -1
100
AcDbLine
 10
107.2162973675432
 20
227.3229
 11
107.7115395897654
 21
227.0752817777778
  0
LINE
  5
1F3
100
AcDbEntity
  8
0
  6
ByLayer
 62
  256
370
   -1
100
AcDbLine
 10
107.7115395897654
 20
227.0752817777778
 11
107.9591578119876
 21
226.8276635555555
  0
LINE
  5
1F4
100
AcDbEntity
  8
0
  6
ByLayer
 62
  256
370
   -1
100
AcDbLine
 10
107.9591578119876
 20
226.8276635555555
 11
108.2067760342099
 21
226.3324213333333
  0
LINE
  5
1F5
100
AcDbEntity
  8
0
  6
ByLayer
 62
  256
370
   -1
100
AcDbLine
 10
108.2067760342099
 20
226.3324213333333
 11
108.2067760342099
 21
225.8371848888889
  0
LINE
  5
1F6
100
AcDbEntity
  8
0
  6
ByLayer
 62
  256
370
   -1
100
AcDbLine
 10
108.2067760342099
 20
225.8371848888889
 11
107.9591578119876
 21
225.3419484444444
  0
LINE
  5
1F7
100
AcDbEntity
  8
0
  6
ByLayer
 62
  256
370
   -1
100
AcDbLine
 10
107.9591578119876
 20
225.3419484444444
 11
107.4639155897654
 21
224.599088
  0
LINE
  5
1F8
100
AcDbEntity
  8
0
  6
ByLayer
 62
  256
370
   -1
100
AcDbLine
 10
107.4639155897654
 20
224.599088
 11
104.9877275897654
 21
222.1229
  0
LINE
  5
1F9
100
AcDbEntity
  8
0
  6
ByLayer
 62
  256
370
   -1
100
AcDbLine
 10
104.9877275897654
 20
222.1229
 11
108.4543942564321
 21
222.1229
  0
LINE
  5
1FA
100
AcDbEntity
  8
0
  6
ByLayer
 62
  256
370
   -1
100
AcDbLine
 10
126.1651340917604
 20
227.3229
 11
128.1460856473159
 21
224.846712
  0
LINE
  5
1FB
100
AcDbEntity
  8
0
  6
ByLayer
 62
  256
370
   -1
100
AcDbLine
 10
128.1460856473159
 20
224.846712
 11
128.1460856473159
 21
222.1229
  0
LINE
  5
1FC
100
AcDbEntity
  8
0
  6
ByLayer
 62
  256
370
   -1
100
AcDbLine
 10
130.1270372028715
 20
227.3229
 11
128.1460856473159
 21
224.846712
  0
LINE
  5
1FD
100
AcDbEntity
  8
0
  6
ByLayer
 62
  256
370
   -1
100
AcDbLine
 10
132.3556087139826
 20
227.3229
 11
135.0794189806493
 21
227.3229
  0
LINE
  5
1FE
100
AcDbEntity
  8
0
  6
ByLayer
 62
  256
370
   -1
100
AcDbLine
 10
135.0794189806493
 20
227.3229
 11
133.5937038695381
 21
225.3419484444444
  0
LINE
  5
1FF
100
AcDbEntity
  8
0
  6
ByLayer
 62
  256
370
   -1
100
AcDbLine
 10
133.5937038695381
 20
225.3419484444444
 11
134.3365585362048
 21
225.3419484444444
  0
LINE
  5
200
100
AcDbEntity
  8
0
  6
ByLayer
 62
  256
370
   -1
100
AcDbLine
 10
134.3365585362048
 20
225.3419484444444
 11
134.8318007584271
 21
225.0943302222222
  0
LINE
  5
201
100
AcDbEntity
  8
0
  6
ByLayer
 62
  256
370
   -1
100
AcDbLine
 10
134.8318007584271
 20
225.0943302222222
 11
135.0794189806493
 21
224.846712
  0
LINE
  5
202
100
AcDbEntity
  8
0
  6
ByLayer
 62
  256
370
   -1
100
AcDbLine
 10
135.0794189806493
 20
224.846712
 11
135.3270372028715
 21
224.1038515555555
  0
LINE
  5
203
100
AcDbEntity
  8
0
  6
ByLayer
 62
  256
370
   -1
100
AcDbLine
 10
135.3270372028715
 20
224.1038515555555
 11
135.3270372028715
 21
223.6086151111111
  0
LINE
  5
204
100
AcDbEntity
  8
0
  6
ByLayer
 62
  256
370
   -1
100
AcDbLine
 10
135.3270372028715
 20
223.6086151111111
 11
135.0794189806493
 21
222.8657546666666
  0
LINE
  5
205
100
AcDbEntity
  8
0
  6
ByLayer
 62
  256
370
   -1
100
AcDbLine
 10
135.0794189806493
 20
222.8657546666666
 11
134.5841825362048
 21
222.3705188
  0
LINE
  5
206
100
AcDbEntity
  8
0
  6
ByLayer
 62
  256
370
   -1
100
AcDbLine
 10
134.5841825362048
 20
222.3705188
 11
133.8413220917604
 21
222.1229
  0
LINE
  5
207
100
AcDbEntity
  8
0
  6
ByLayer
 62
  256
370
   -1
100
AcDbLine
 10
133.8413220917604
 20
222.1229
 11
133.0984674250937
 21
222.1229
  0
LINE
  5
208
100
AcDbEntity
  8
0
  6
ByLayer
 62
  256
370
   -1
100
AcDbLine
 10
133.0984674250937
 20
222.1229
 11
132.3556087139826
 21
222.3705188
  0
LINE
  5
209
100
AcDbEntity
  8
0
  6
ByLayer
 62
  256
370
   -1
100
AcDbLine
 10
132.3556087139826
 20
222.3705188
 11
132.1079893362048
 21
222.6181381777778
  0
LINE
  5
20A
100
AcDbEntity
  8
0
  6
ByLayer
 62
  256
370
   -1
100
AcDbLine
 10
132.1079893362048
 20
222.6181381777778
 11
131.8603705362048
 21
223.1133786666666
  0
LINE
  5
20B
100
AcDbEntity
  8
0
  6
ByLayer
 62
  256
370
   -1
100
AcDbLine
 10
153.3012343219883
 20
227.3229
 11
155.2821858775439
 21
224.846712
  0
LINE
  5
20C
100
AcDbEntity
  8
0
  6
ByLayer
 62
  256
370
   -1
100
AcDbLine
 10
155.2821858775439
 20
224.846712
 11
155.2821858775439
 21
222.1229
  0
LINE
  5
20D
100
AcDbEntity
  8
0
  6
ByLayer
 62
  256
370
   -1
100
AcDbLine
 10
157.2631374330994
 20
227.3229
 11
155.2821858775439
 21
224.846712
  0
LINE
  5
20E
100
AcDbEntity
  8
0
  6
ByLayer
 62
  256
370
   -1
100
AcDbLine
 10
161.4726587664328
 20
227.3229
 11
158.9964707664328
 21
223.8562333333333
  0
LINE
  5
20F
100
AcDbEntity
  8
0
  6
ByLayer
 62
  256
370
   -1
100
AcDbLine
 10
158.9964707664328
 20
223.8562333333333
 11
162.7107556553217
 21
223.8562333333333
  0
LINE
  5
210
100
AcDbEntity
  8
0
  6
ByLayer
 62
  256
370
   -1
100
AcDbLine
 10
161.4726587664328
 20
227.3229
 11
161.4726587664328
 21
222.1229
  0
LINE
  5
211
100
AcDbEntity
  8
0
  6
ByLayer
 62
  256
370
   -1
100
AcDbLine
 10
180.4858783525275
 20
227.3229
 11
182.4668299080831
 21
224.846712
  0
LINE
  5
212
100
AcDbEntity
  8
0
  6
ByLayer
 62
  256
370
   -1
100
AcDbLine
 10
182.4668299080831
 20
224.846712
 11
182.4668299080831
 21
222.1229
  0
LINE
  5
213
100
AcDbEntity
  8
0
  6
ByLayer
 62
  256
370
   -1
100
AcDbLine
 10
184.4477814636386
 20
227.3229
 11
182.4668299080831
 21
224.846712
  0
LINE
  5
214
100
AcDbEntity
  8
0
  6
ByLayer
 62
  256
370
   -1
100
AcDbLine
 10
189.1525450191942
 20
227.3229
 11
186.6763529747498
 21
227.3229
  0
LINE
  5
215
100
AcDbEntity
  8
0
  6
ByLayer
 62
  256
370
   -1
100
AcDbLine
 10
186.6763529747498
 20
227.3229
 11
186.428733596972
 21
225.0943302222222
  0
LINE
  5
216
100
AcDbEntity
  8
0
  6
ByLayer
 62
  256
370
   -1
100
AcDbLine
 10
186.428733596972
 20
225.0943302222222
 11
186.6763529747498
 21
225.3419484444444
  0
LINE
  5
217
100
AcDbEntity
  8
0
  6
ByLayer
 62
  256
370
   -1
100
AcDbLine
 10
186.6763529747498
 20
225.3419484444444
 11
187.4192116858609
 21
225.5895666666667
  0
LINE
  5
218
100
AcDbEntity
  8
0
  6
ByLayer
 62
  256
370
   -1
100
AcDbLine
 10
187.4192116858609
 20
225.5895666666667
 11
188.1620663525275
 21
225.5895666666667
  0
LINE
  5
219
100
AcDbEntity
  8
0
  6
ByLayer
 62
  256
370
   -1
100
AcDbLine
 10
188.1620663525275
 20
225.5895666666667
 11
188.904926796972
 21
225.3419484444444
  0
LINE
  5
21A
100
AcDbEntity
  8
0
  6
ByLayer
 62
  256
370
   -1
100
AcDbLine
 10
188.904926796972
 20
225.3419484444444
 11
189.4001632414164
 21
224.846712
  0
LINE
  5
21B
100
AcDbEntity
  8
0
  6
ByLayer
 62
  256
370
   -1
100
AcDbLine
 10
189.4001632414164
 20
224.846712
 11
189.6477814636386
 21
224.1038515555555
  0
LINE
  5
21C
100
AcDbEntity
  8
0
  6
ByLayer
 62
  256
370
   -1
100
AcDbLine
 10
189.6477814636386
 20
224.1038515555555
 11
189.6477814636386
 21
223.6086151111111
  0
LINE
  5
21D
100
AcDbEntity
  8
0
  6
ByLayer
 62
  256
370
   -1
100
AcDbLine
 10
189.6477814636386
 20
223.6086151111111
 11
189.4001632414164
 21
222.8657546666666
  0
LINE
  5
21E
100
AcDbEntity
  8
0
  6
ByLayer
 62
  256
370
   -1
100
AcDbLine
 10
189.4001632414164
 20
222.8657546666666
 11
188.904926796972
 21
222.3705188
  0
LINE
  5
21F
100
AcDbEntity
  8
0
  6
ByLayer
 62
  256
370
   -1
100
AcDbLine
 10
188.904926796972
 20
222.3705188
 11
188.1620663525275
 21
222.1229
  0
LINE
  5
220
100
AcDbEntity
  8
0
  6
ByLayer
 62
  256
370
   -1
100
AcDbLine
 10
188.1620663525275
 20
222.1229
 11
187.4192116858609
 21
222.1229
  0
LINE
  5
221
100
AcDbEntity
  8
0
  6
ByLayer
 62
  256
370
   -1
100
AcDbLine
 10
187.4192116858609
 20
222.1229
 11
186.6763529747498
 21
222.3705188
  0
LINE
  5
222
100
AcDbEntity
  8
0
  6
ByLayer
 62
  256
370
   -1
100
AcDbLine
 10
186.6763529747498
 20
222.3705188
 11
186.428733596972
 21
222.6181381777778
  0
LINE
  5
223
100
AcDbEntity
  8
0
  6
ByLayer
 62
  256
370
   -1
100
AcDbLine
 10
186.428733596972
 20
222.6181381777778
 11
186.181114796972
 21
223.1133786666666
  0
LINE
  5
224
100
AcDbEntity
  8
0
  6
ByLayer
 62
  256
370
   -1
100
AcDbLine
 10
207.7121148038582
 20
227.3229
 11
209.6930663594138
 21
224.846712
  0
LINE
  5
225
100
AcDbEntity
  8
0
  6
ByLayer
 62
  256
370
   -1
100
AcDbLine
 10
209.6930663594138
 20
224.846712
 11
209.6930663594138
 21
222.1229
  0
LINE
  5
226
100
AcDbEntity
  8
0
  6
ByLayer
 62
  256
370
   -1
100
AcDbLine
 10
211.6740179149693
 20
227.3229
 11
209.6930663594138
 21
224.846712
  0
LINE
  5
227
100
AcDbEntity
  8
0
  6
ByLayer
 62
  256
370
   -1
100
AcDbLine
 10
216.3787814705249
 20
226.5800453333333
 11
216.1311632483027
 21
227.0752817777778
  0
LINE
  5
228
100
AcDbEntity
  8
0
  6
ByLayer
 62
  256
370
   -1
100
AcDbLine
 10
216.1311632483027
 20
227.0752817777778
 11
215.3883028038582
 21
227.3229
  0
LINE
  5
229
100
AcDbEntity
  8
0
  6
ByLayer
 62
  256
370
   -1
100
AcDbLine
 10
215.3883028038582
 20
227.3229
 11
214.8930663594138
 21
227.3229
  0
LINE
  5
22A
100
AcDbEntity
  8
0
  6
ByLayer
 62
  256
370
   -1
100
AcDbLine
 10
214.8930663594138
 20
227.3229
 11
214.1502059149693
 21
227.0752817777778
  0
LINE
  5
22B
100
AcDbEntity
  8
0
  6
ByLayer
 62
  256
370
   -1
100
AcDbLine
 10
214.1502059149693
 20
227.0752817777778
 11
213.6549700483027
 21
226.3324213333333
  0
LINE
  5
22C
100
AcDbEntity
  8
0
  6
ByLayer
 62
  256
370
   -1
100
AcDbLine
 10
213.6549700483027
 20
226.3324213333333
 11
213.4073512483027
 21
225.0943302222222
  0
LINE
  5
22D
100
AcDbEntity
  8
0
  6
ByLayer
 62
  256
370
   -1
100
AcDbLine
 10
213.4073512483027
 20
225.0943302222222
 11
213.4073512483027
 21
223.8562333333333
  0
LINE
  5
22E
100
AcDbEntity
  8
0
  6
ByLayer
 62
  256
370
   -1
100
AcDbLine
 10
213.4073512483027
 20
223.8562333333333
 11
213.6549700483027
 21
222.8657546666666
  0
LINE
  5
22F
100
AcDbEntity
  8
0
  6
ByLayer
 62
  256
370
   -1
100
AcDbLine
 10
213.6549700483027
 20
222.8657546666666
 11
214.1502059149693
 21
222.3705188
  0
LINE
  5
230
100
AcDbEntity
  8
0
  6
ByLayer
 62
  256
370
   -1
100
AcDbLine
 10
214.1502059149693
 20
222.3705188
 11
214.8930663594138
 21
222.1229
  0
LINE
  5
231
100
AcDbEntity
  8
0
  6
ByLayer
 62
  256
370
   -1
100
AcDbLine
 10
214.8930663594138
 20
222.1229
 11
215.140684581636
 21
222.1229
  0
LINE
  5
232
100
AcDbEntity
  8
0
  6
ByLayer
 62
  256
370
   -1
100
AcDbLine
 10
215.140684581636
 20
222.1229
 11
215.8835392483027
 21
222.3705188
  0
LINE
  5
233
100
AcDbEntity
  8
0
  6
ByLayer
 62
  256
370
   -1
100
AcDbLine
 10
215.8835392483027
 20
222.3705188
 11
216.3787814705249
 21
222.8657546666666
  0
LINE
  5
234
100
AcDbEntity
  8
0
  6
ByLayer
 62
  256
370
   -1
100
AcDbLine
 10
216.3787814705249
 20
222.8657546666666
 11
216.6263996927471
 21
223.6086151111111
  0
LINE
  5
235
100
AcDbEntity
  8
0
  6
ByLayer
 62
  256
370
   -1
100
AcDbLine
 10
216.6263996927471
 20
223.6086151111111
 11
216.6263996927471
 21
223.8562333333333
  0
LINE
  5
236
100
AcDbEntity
  8
0
  6
ByLayer
 62
  256
370
   -1
100
AcDbLine
 10
216.6263996927471
 20
223.8562333333333
 11
216.3787814705249
 21
224.599088
  0
LINE
  5
237
100
AcDbEntity
  8
0
  6
ByLayer
 62
  256
370
   -1
100
AcDbLine
 10
216.3787814705249
 20
224.599088
 11
215.8835392483027
 21
225.0943302222222
  0
LINE
  5
238
100
AcDbEntity
  8
0
  6
ByLayer
 62
  256
370
   -1
100
AcDbLine
 10
215.8835392483027
 20
225.0943302222222
 11
215.140684581636
 21
225.3419484444444
  0
LINE
  5
239
100
AcDbEntity
  8
0
  6
ByLayer
 62
  256
370
   -1
100
AcDbLine
 10
215.140684581636
 20
225.3419484444444
 11
214.8930663594138
 21
225.3419484444444
  0
LINE
  5
23A
100
AcDbEntity
  8
0
  6
ByLayer
 62
  256
370
   -1
100
AcDbLine
 10
214.8930663594138
 20
225.3419484444444
 11
214.1502059149693
 21
225.0943302222222
  0
LINE
  5
23B
100
AcDbEntity
  8
0
  6
ByLayer
 62
  256
370
   -1
100
AcDbLine
 10
214.1502059149693
 20
225.0943302222222
 11
213.6549700483027
 21
224.599088
  0
LINE
  5
23C
100
AcDbEntity
  8
0
  6
ByLayer
 62
  256
370
   -1
100
AcDbLine
 10
213.6549700483027
 20
224.599088
 11
213.4073512483027
 21
223.8562333333333
  0
LINE
  5
23D
100
AcDbEntity
  8
0
  6
ByLayer
 62
  256
370
   -1
100
AcDbLine
 10
21.60851919780786
 20
87.99383964871335
 11
19.6275676422523
 21
82.79383964871334
  0
LINE
  5
23E
100
AcDbEntity
  8
0
  6
ByLayer
 62
  256
370
   -1
100
AcDbLine
 10
21.60851919780786
 20
87.99383964871335
 11
23.58947075336341
 21
82.79383964871334
  0
LINE
  5
23F
100
AcDbEntity
  8
0
  6
ByLayer
 62
  256
370
   -1
100
AcDbLine
 10
20.37042230891897
 20
84.52717298204668
 11
22.84661608669674
 21
84.52717298204668
  0
LINE
  5
240
100
AcDbEntity
  8
0
  6
ByLayer
 62
  256
370
   -1
100
AcDbLine
 10
47.6857683657405
 20
87.99383964871335
 11
47.6857683657405
 21
82.79383964871334
  0
LINE
  5
241
100
AcDbEntity
  8
0
  6
ByLayer
 62
  256
370
   -1
100
AcDbLine
 10
47.6857683657405
 20
87.99383964871335
 11
49.91433814351828
 21
87.99383964871335
  0
LINE
  5
242
100
AcDbEntity
  8
0
  6
ByLayer
 62
  256
370
   -1
100
AcDbLine
 10
49.91433814351828
 20
87.99383964871335
 11
50.65719858796272
 21
87.74622142649112
  0
LINE
  5
243
100
AcDbEntity
  8
0
  6
ByLayer
 62
  256
370
   -1
100
AcDbLine
 10
50.65719858796272
 20
87.74622142649112
 11
50.90481681018495
 21
87.4986032042689
  0
LINE
  5
244
100
AcDbEntity
  8
0
  6
ByLayer
 62
  256
370
   -1
100
AcDbLine
 10
50.90481681018495
 20
87.4986032042689
 11
51.15243503240717
 21
87.00336098204667
  0
LINE
  5
245
100
AcDbEntity
  8
0
  6
ByLayer
 62
  256
370
   -1
100
AcDbLine
 10
51.15243503240717
 20
87.00336098204667
 11
51.15243503240717
 21
86.50812453760223
  0
LINE
  5
246
100
AcDbEntity
  8
0
  6
ByLayer
 62
  256
370
   -1
100
AcDbLine
 10
51.15243503240717
 20
86.50812453760223
 11
50.90481681018495
 21
86.0128880931578
  0
LINE
  5
247
100
AcDbEntity
  8
0
  6
ByLayer
 62
  256
370
   -1
100
AcDbLine
 10
50.90481681018495
 20
86.0128880931578
 11
50.65719858796272
 21
85.76526987093557
  0
LINE
  5
248
100
AcDbEntity
  8
0
  6
ByLayer
 62
  256
370
   -1
100
AcDbLine
 10
50.65719858796272
 20
85.76526987093557
 11
49.91433814351828
 21
85.51765164871335
  0
LINE
  5
249
100
AcDbEntity
  8
0
  6
ByLayer
 62
  256
370
   -1
100
AcDbLine
 10
47.6857683657405
 20
85.51765164871335
 11
49.91433814351828
 21
85.51765164871335
  0
LINE
  5
24A
100
AcDbEntity
  8
0
  6
ByLayer
 62
  256
370
   -1
100
AcDbLine
 10
49.91433814351828
 20
85.51765164871335
 11
50.65719858796272
 21
85.27002764871334
  0
LINE
  5
24B
100
AcDbEntity
  8
0
  6
ByLayer
 62
  256
370
   -1
100
AcDbLine
 10
50.65719858796272
 20
85.27002764871334
 11
50.90481681018495
 21
85.02240942649112
  0
LINE
  5
24C
100
AcDbEntity
  8
0
  6
ByLayer
 62
  256
370
   -1
100
AcDbLine
 10
50.90481681018495
 20
85.02240942649112
 11
51.15243503240717
 21
84.52717298204668
  0
LINE
  5
24D
100
AcDbEntity
  8
0
  6
ByLayer
 62
  256
370
   -1
100
AcDbLine
 10
51.15243503240717
 20
84.52717298204668
 11
51.15243503240717
 21
83.78431831538002
  0
LINE
  5
24E
100
AcDbEntity
  8
0
  6
ByLayer
 62
  256
370
   -1
100
AcDbLine
 10
51.15243503240717
 20
83.78431831538002
 11
50.90481681018495
 21
83.28907782649112
  0
LINE
  5
24F
100
AcDbEntity
  8
0
  6
ByLayer
 62
  256
370
   -1
100
AcDbLine
 10
50.90481681018495
 20
83.28907782649112
 11
50.65719858796272
 21
83.04145844871334
  0
LINE
  5
250
100
AcDbEntity
  8
0
  6
ByLayer
 62
  256
370
   -1
100
AcDbLine
 10
50.65719858796272
 20
83.04145844871334
 11
49.91433814351828
 21
82.79383964871334
  0
LINE
  5
251
100
AcDbEntity
  8
0
  6
ByLayer
 62
  256
370
   -1
100
AcDbLine
 10
49.91433814351828
 20
82.79383964871334
 11
47.6857683657405
 21
82.79383964871334
  0
LINE
  5
252
100
AcDbEntity
  8
0
  6
ByLayer
 62
  256
370
   -1
100
AcDbLine
 10
78.53615348485739
 20
86.75574275982446
 11
78.28853526263518
 21
87.25098498204667
  0
LINE
  5
253
100
AcDbEntity
  8
0
  6
ByLayer
 62
  256
370
   -1
100
AcDbLine
 10
78.28853526263518
 20
87.25098498204667
 11
77.79329881819073
 21
87.74622142649112
  0
LINE
  5
254
100
AcDbEntity
  8
0
  6
ByLayer
 62
  256
370
   -1
100
AcDbLine
 10
77.79329881819073
 20
87.74622142649112
 11
77.2980565959685
 21
87.99383964871335
  0
LINE
  5
255
100
AcDbEntity
  8
0
  6
ByLayer
 62
  256
370
   -1
100
AcDbLine
 10
77.2980565959685
 20
87.99383964871335
 11
76.30758370707963
 21
87.99383964871335
  0
LINE
  5
256
100
AcDbEntity
  8
0
  6
ByLayer
 62
  256
370
   -1
100
AcDbLine
 10
76.30758370707963
 20
87.99383964871335
 11
75.81234726263519
 21
87.74622142649112
  0
LINE
  5
257
100
AcDbEntity
  8
0
  6
ByLayer
 62
  256
370
   -1
100
AcDbLine
 10
75.81234726263519
 20
87.74622142649112
 11
75.31710677374629
 21
87.25098498204667
  0
LINE
  5
258
100
AcDbEntity
  8
0
  6
ByLayer
 62
  256
370
   -1
100
AcDbLine
 10
75.31710677374629
 20
87.25098498204667
 11
75.06948739596851
 21
86.75574275982446
  0
LINE
  5
259
100
AcDbEntity
  8
0
  6
ByLayer
 62
  256
370
   -1
100
AcDbLine
 10
75.06948739596851
 20
86.75574275982446
 11
74.82186859596851
 21
86.0128880931578
  0
LINE
  5
25A
100
AcDbEntity
  8
0
  6
ByLayer
 62
  256
370
   -1
100
AcDbLine
 10
74.82186859596851
 20
86.0128880931578
 11
74.82186859596851
 21
84.77479120426889
  0
LINE
  5
25B
100
AcDbEntity
  8
0
  6
ByLayer
 62
  256
370
   -1
100
AcDbLine
 10
74.82186859596851
 20
84.77479120426889
 11
75.06948739596851
 21
84.03193653760223
  0
LINE
  5
25C
100
AcDbEntity
  8
0
  6
ByLayer
 62
  256
370
   -1
100
AcDbLine
 10
75.06948739596851
 20
84.03193653760223
 11
75.31710677374629
 21
83.53669431538
  0
LINE
  5
25D
100
AcDbEntity
  8
0
  6
ByLayer
 62
  256
370
   -1
100
AcDbLine
 10
75.31710677374629
 20
83.53669431538
 11
75.81234726263519
 21
83.04145844871334
  0
LINE
  5
25E
100
AcDbEntity
  8
0
  6
ByLayer
 62
  256
370
   -1
100
AcDbLine
 10
75.81234726263519
 20
83.04145844871334
 11
76.30758370707963
 21
82.79383964871334
  0
LINE
  5
25F
100
AcDbEntity
  8
0
  6
ByLayer
 62
  256
370
   -1
100
AcDbLine
 10
76.30758370707963
 20
82.79383964871334
 11
77.2980565959685
 21
82.79383964871334
  0
LINE
  5
260
100
AcDbEntity
  8
0
  6
ByLayer
 62
  256
370
   -1
100
AcDbLine
 10
77.2980565959685
 20
82.79383964871334
 11
77.79329881819073
 21
83.04145844871334
  0
LINE
  5
261
100
AcDbEntity
  8
0
  6
ByLayer
 62
  256
370
   -1
100
AcDbLine
 10
77.79329881819073
 20
83.04145844871334
 11
78.28853526263518
 21
83.53669431538
  0
LINE
  5
262
100
AcDbEntity
  8
0
  6
ByLayer
 62
  256
370
   -1
100
AcDbLine
 10
78.28853526263518
 20
83.53669431538
 11
78.53615348485739
 21
84.03193653760223
  0
LINE
  5
263
100
AcDbEntity
  8
0
  6
ByLayer
 62
  256
370
   -1
100
AcDbLine
 10
100.3563641347575
 20
86.75574275982446
 11
100.1087459125353
 21
87.25098498204667
  0
LINE
  5
264
100
AcDbEntity
  8
0
  6
ByLayer
 62
  256
370
   -1
100
AcDbLine
 10
100.1087459125353
 20
87.25098498204667
 11
99.61350946809087
 21
87.74622142649112
  0
LINE
  5
265
100
AcDbEntity
  8
0
  6
ByLayer
 62
  256
370
   -1
100
AcDbLine
 10
99.61350946809087
 20
87.74622142649112
 11
99.11826724586864
 21
87.99383964871335
  0
LINE
  5
266
100
AcDbEntity
  8
0
  6
ByLayer
 62
  256
370
   -1
100
AcDbLine
 10
99.11826724586864
 20
87.99383964871335
 11
98.12779435697976
 21
87.99383964871335
  0
LINE
  5
267
100
AcDbEntity
  8
0
  6
ByLayer
 62
  256
370
   -1
100
AcDbLine
 10
98.12779435697976
 20
87.99383964871335
 11
97.63255791253532
 21
87.74622142649112
  0
LINE
  5
268
100
AcDbEntity
  8
0
  6
ByLayer
 62
  256
370
   -1
100
AcDbLine
 10
97.63255791253532
 20
87.74622142649112
 11
97.13731742364642
 21
87.25098498204667
  0
LINE
  5
269
100
AcDbEntity
  8
0
  6
ByLayer
 62
  256
370
   -1
100
AcDbLine
 10
97.13731742364642
 20
87.25098498204667
 11
96.88969804586864
 21
86.75574275982446
  0
LINE
  5
26A
100
AcDbEntity
  8
0
  6
ByLayer
 62
  256
370
   -1
100
AcDbLine
 10
96.88969804586864
 20
86.75574275982446
 11
96.64207924586864
 21
86.0128880931578
  0
LINE
  5
26B
100
AcDbEntity
  8
0
  6
ByLayer
 62
  256
370
   -1
100
AcDbLine
 10
96.64207924586864
 20
86.0128880931578
 11
96.64207924586864
 21
84.77479120426889
  0
LINE
  5
26C
100
AcDbEntity
  8
0
  6
ByLayer
 62
  256
370
   -1
100
AcDbLine
 10
96.64207924586864
 20
84.77479120426889
 11
96.88969804586864
 21
84.03193653760223
  0
LINE
  5
26D
100
AcDbEntity
  8
0
  6
ByLayer
 62
  256
370
   -1
100
AcDbLine
 10
96.88969804586864
 20
84.03193653760223
 11
97.13731742364642
 21
83.53669431538
  0
LINE
  5
26E
100
AcDbEntity
  8
0
  6
ByLayer
 62
  256
370
   -1
100
AcDbLine
 10
97.13731742364642
 20
83.53669431538
 11
97.63255791253532
 21
83.04145844871334
  0
LINE
  5
26F
100
AcDbEntity
  8
0
  6
ByLayer
 62
  256
370
   -1
100
AcDbLine
 10
97.63255791253532
 20
83.04145844871334
 11
98.12779435697976
 21
82.79383964871334
  0
LINE
  5
270
100
AcDbEntity
  8
0
  6
ByLayer
 62
  256
370
   -1
100
AcDbLine
 10
98.12779435697976
 20
82.79383964871334
 11
99.11826724586864
 21
82.79383964871334
  0
LINE
  5
271
100
AcDbEntity
  8
0
  6
ByLayer
 62
  256
370
   -1
100
AcDbLine
 10
99.11826724586864
 20
82.79383964871334
 11
99.61350946809087
 21
83.04145844871334
  0
LINE
  5
272
100
AcDbEntity
  8
0
  6
ByLayer
 62
  256
370
   -1
100
AcDbLine
 10
99.61350946809087
 20
83.04145844871334
 11
100.1087459125353
 21
83.53669431538
  0
LINE
  5
273
100
AcDbEntity
  8
0
  6
ByLayer
 62
  256
370
   -1
100
AcDbLine
 10
100.1087459125353
 20
83.53669431538
 11
100.3563641347575
 21
84.03193653760223
  0
LINE
  5
274
100
AcDbEntity
  8
0
  6
ByLayer
 62
  256
370
   -1
100
AcDbLine
 10
100.3563641347575
 20
84.03193653760223
 11
100.3563641347575
 21
84.77479120426889
  0
LINE
  5
275
100
AcDbEntity
  8
0
  6
ByLayer
 62
  256
370
   -1
100
AcDbLine
 10
99.11826724586864
 20
84.77479120426889
 11
100.3563641347575
 21
84.77479120426889
  0
LINE
  5
276
100
AcDbEntity
  8
0
  6
ByLayer
 62
  256
370
   -1
100
AcDbLine
 10
102.3373162680909
 20
86.75574275982446
 11
102.3373162680909
 21
87.00336098204667
  0
LINE
  5
277
100
AcDbEntity
  8
0
  6
ByLayer
 62
  256
370
   -1
100
AcDbLine
 10
102.3373162680909
 20
87.00336098204667
 11
102.5849356458686
 21
87.4986032042689
  0
LINE
  5
278
100
AcDbEntity
  8
0
  6
ByLayer
 62
  256
370
   -1
100
AcDbLine
 10
102.5849356458686
 20
87.4986032042689
 11
102.8325521347575
 21
87.74622142649112
  0
LINE
  5
279
100
AcDbEntity
  8
0
  6
ByLayer
 62
  256
370
   -1
100
AcDbLine
 10
102.8325521347575
 20
87.74622142649112
 11
103.3277943569798
 21
87.99383964871335
  0
LINE
  5
27A
100
AcDbEntity
  8
0
  6
ByLayer
 62
  256
370
   -1
100
AcDbLine
 10
103.3277943569798
 20
87.99383964871335
 11
104.3182672458686
 21
87.99383964871335
  0
LINE
  5
27B
100
AcDbEntity
  8
0
  6
ByLayer
 62
  256
370
   -1
100
AcDbLine
 10
104.3182672458686
 20
87.99383964871335
 11
104.8135094680909
 21
87.74622142649112
  0
LINE
  5
27C
100
AcDbEntity
  8
0
  6
ByLayer
 62
  256
370
   -1
100
AcDbLine
 10
104.8135094680909
 20
87.74622142649112
 11
105.0611276903131
 21
87.4986032042689
  0
LINE
  5
27D
100
AcDbEntity
  8
0
  6
ByLayer
 62
  256
370
   -1
100
AcDbLine
 10
105.0611276903131
 20
87.4986032042689
 11
105.3087459125353
 21
87.00336098204667
  0
LINE
  5
27E
100
AcDbEntity
  8
0
  6
ByLayer
 62
  256
370
   -1
100
AcDbLine
 10
105.3087459125353
 20
87.00336098204667
 11
105.3087459125353
 21
86.50812453760223
  0
LINE
  5
27F
100
AcDbEntity
  8
0
  6
ByLayer
 62
  256
370
   -1
100
AcDbLine
 10
105.3087459125353
 20
86.50812453760223
 11
105.0611276903131
 21
86.0128880931578
  0
LINE
  5
280
100
AcDbEntity
  8
0
  6
ByLayer
 62
  256
370
   -1
100
AcDbLine
 10
105.0611276903131
 20
86.0128880931578
 11
104.5658854680909
 21
85.27002764871334
  0
LINE
  5
281
100
AcDbEntity
  8
0
  6
ByLayer
 62
  256
370
   -1
100
AcDbLine
 10
104.5658854680909
 20
85.27002764871334
 11
102.0896974680909
 21
82.79383964871334
  0
LINE
  5
282
100
AcDbEntity
  8
0
  6
ByLayer
 62
  256
370
   -1
100
AcDbLine
 10
102.0896974680909
 20
82.79383964871334
 11
105.5563641347575
 21
82.79383964871334
  0
LINE
  5
283
100
AcDbEntity
  8
0
  6
ByLayer
 62
  256
370
   -1
100
AcDbLine
 10
109.2706490236464
 20
87.99383964871335
 11
107.2896974680909
 21
82.79383964871334
  0
LINE
  5
284
100
AcDbEntity
  8
0
  6
ByLayer
 62
  256
370
   -1
100
AcDbLine
 10
109.2706490236464
 20
87.99383964871335
 11
111.251600579202
 21
82.79383964871334
  0
LINE
  5
285
100
AcDbEntity
  8
0
  6
ByLayer
 62
  256
370
   -1
100
AcDbLine
 10
108.0325521347575
 20
84.52717298204668
 11
110.5087459125353
 21
84.52717298204668
  0
LINE
  5
286
100
AcDbEntity
  8
0
  6
ByLayer
 62
  256
370
   -1
100
AcDbLine
 10
127.166424115075
 20
86.75574275982446
 11
126.9188058928528
 21
87.25098498204667
  0
LINE
  5
287
100
AcDbEntity
  8
0
  6
ByLayer
 62
  256
370
   -1
100
AcDbLine
 10
126.9188058928528
 20
87.25098498204667
 11
126.4235694484084
 21
87.74622142649112
  0
LINE
  5
288
100
AcDbEntity
  8
0
  6
ByLayer
 62
  256
370
   -1
100
AcDbLine
 10
126.4235694484084
 20
87.74622142649112
 11
125.9283272261861
 21
87.99383964871335
  0
LINE
  5
289
100
AcDbEntity
  8
0
  6
ByLayer
 62
  256
370
   -1
100
AcDbLine
 10
125.9283272261861
 20
87.99383964871335
 11
124.9378543372973
 21
87.99383964871335
  0
LINE
  5
28A
100
AcDbEntity
  8
0
  6
ByLayer
 62
  256
370
   -1
100
AcDbLine
 10
124.9378543372973
 20
87.99383964871335
 11
124.4426178928528
 21
87.74622142649112
  0
LINE
  5
28B
100
AcDbEntity
  8
0
  6
ByLayer
 62
  256
370
   -1
100
AcDbLine
 10
124.4426178928528
 20
87.74622142649112
 11
123.9473774039639
 21
87.25098498204667
  0
LINE
  5
28C
100
AcDbEntity
  8
0
  6
ByLayer
 62
  256
370
   -1
100
AcDbLine
 10
123.9473774039639
 20
87.25098498204667
 11
123.6997580261861
 21
86.75574275982446
  0
LINE
  5
28D
100
AcDbEntity
  8
0
  6
ByLayer
 62
  256
370
   -1
100
AcDbLine
 10
123.6997580261861
 20
86.75574275982446
 11
123.4521392261861
 21
86.0128880931578
  0
LINE
  5
28E
100
AcDbEntity
  8
0
  6
ByLayer
 62
  256
370
   -1
100
AcDbLine
 10
123.4521392261861
 20
86.0128880931578
 11
123.4521392261861
 21
84.77479120426889
  0
LINE
  5
28F
100
AcDbEntity
  8
0
  6
ByLayer
 62
  256
370
   -1
100
AcDbLine
 10
123.4521392261861
 20
84.77479120426889
 11
123.6997580261861
 21
84.03193653760223
  0
LINE
  5
290
100
AcDbEntity
  8
0
  6
ByLayer
 62
  256
370
   -1
100
AcDbLine
 10
123.6997580261861
 20
84.03193653760223
 11
123.9473774039639
 21
83.53669431538
  0
LINE
  5
291
100
AcDbEntity
  8
0
  6
ByLayer
 62
  256
370
   -1
100
AcDbLine
 10
123.9473774039639
 20
83.53669431538
 11
124.4426178928528
 21
83.04145844871334
  0
LINE
  5
292
100
AcDbEntity
  8
0
  6
ByLayer
 62
  256
370
   -1
100
AcDbLine
 10
124.4426178928528
 20
83.04145844871334
 11
124.9378543372973
 21
82.79383964871334
  0
LINE
  5
293
100
AcDbEntity
  8
0
  6
ByLayer
 62
  256
370
   -1
100
AcDbLine
 10
124.9378543372973
 20
82.79383964871334
 11
125.9283272261861
 21
82.79383964871334
  0
LINE
  5
294
100
AcDbEntity
  8
0
  6
ByLayer
 62
  256
370
   -1
100
AcDbLine
 10
125.9283272261861
 20
82.79383964871334
 11
126.4235694484084
 21
83.04145844871334
  0
LINE
  5
295
100
AcDbEntity
  8
0
  6
ByLayer
 62
  256
370
   -1
100
AcDbLine
 10
126.4235694484084
 20
83.04145844871334
 11
126.9188058928528
 21
83.53669431538
  0
LINE
  5
296
100
AcDbEntity
  8
0
  6
ByLayer
 62
  256
370
   -1
100
AcDbLine
 10
126.9188058928528
 20
83.53669431538
 11
127.166424115075
 21
84.03193653760223
  0
LINE
  5
297
100
AcDbEntity
  8
0
  6
ByLayer
 62
  256
370
   -1
100
AcDbLine
 10
127.166424115075
 20
84.03193653760223
 11
127.166424115075
 21
84.77479120426889
  0
LINE
  5
298
100
AcDbEntity
  8
0
  6
ByLayer
 62
  256
370
   -1
100
AcDbLine
 10
125.9283272261861
 20
84.77479120426889
 11
127.166424115075
 21
84.77479120426889
  0
LINE
  5
299
100
AcDbEntity
  8
0
  6
ByLayer
 62
  256
370
   -1
100
AcDbLine
 10
129.1473762484084
 20
86.75574275982446
 11
129.1473762484084
 21
87.00336098204667
  0
LINE
  5
29A
100
AcDbEntity
  8
0
  6
ByLayer
 62
  256
370
   -1
100
AcDbLine
 10
129.1473762484084
 20
87.00336098204667
 11
129.3949956261862
 21
87.4986032042689
  0
LINE
  5
29B
100
AcDbEntity
  8
0
  6
ByLayer
 62
  256
370
   -1
100
AcDbLine
 10
129.3949956261862
 20
87.4986032042689
 11
129.642612115075
 21
87.74622142649112
  0
LINE
  5
29C
100
AcDbEntity
  8
0
  6
ByLayer
 62
  256
370
   -1
100
AcDbLine
 10
129.642612115075
 20
87.74622142649112
 11
130.1378543372973
 21
87.99383964871335
  0
LINE
  5
29D
100
AcDbEntity
  8
0
  6
ByLayer
 62
  256
370
   -1
100
AcDbLine
 10
130.1378543372973
 20
87.99383964871335
 11
131.1283272261861
 21
87.99383964871335
  0
LINE
  5
29E
100
AcDbEntity
  8
0
  6
ByLayer
 62
  256
370
   -1
100
AcDbLine
 10
131.1283272261861
 20
87.99383964871335
 11
131.6235694484084
 21
87.74622142649112
  0
LINE
  5
29F
100
AcDbEntity
  8
0
  6
ByLayer
 62
  256
370
   -1
100
AcDbLine
 10
131.6235694484084
 20
87.74622142649112
 11
131.8711876706306
 21
87.4986032042689
  0
LINE
  5
2A0
100
AcDbEntity
  8
0
  6
ByLayer
 62
  256
370
   -1
100
AcDbLine
 10
131.8711876706306
 20
87.4986032042689
 11
132.1188058928528
 21
87.00336098204667
  0
LINE
  5
2A1
100
AcDbEntity
  8
0
  6
ByLayer
 62
  256
370
   -1
100
AcDbLine
 10
132.1188058928528
 20
87.00336098204667
 11
132.1188058928528
 21
86.50812453760223
  0
LINE
  5
2A2
100
AcDbEntity
  8
0
  6
ByLayer
 62
  256
370
   -1
100
AcDbLine
 10
132.1188058928528
 20
86.50812453760223
 11
131.8711876706306
 21
86.0128880931578
  0
LINE
  5
2A3
100
AcDbEntity
  8
0
  6
ByLayer
 62
  256
370
   -1
100
AcDbLine
 10
131.8711876706306
 20
86.0128880931578
 11
131.3759454484084
 21
85.27002764871334
  0
LINE
  5
2A4
100
AcDbEntity
  8
0
  6
ByLayer
 62
  256
370
   -1
100
AcDbLine
 10
131.3759454484084
 20
85.27002764871334
 11
128.8997574484084
 21
82.79383964871334
  0
LINE
  5
2A5
100
AcDbEntity
  8
0
  6
ByLayer
 62
  256
370
   -1
100
AcDbLine
 10
128.8997574484084
 20
82.79383964871334
 11
132.366424115075
 21
82.79383964871334
  0
LINE
  5
2A6
100
AcDbEntity
  8
0
  6
ByLayer
 62
  256
370
   -1
100
AcDbLine
 10
134.0997574484084
 20
87.99383964871335
 11
134.0997574484084
 21
82.79383964871334
  0
LINE
  5
2A7
100
AcDbEntity
  8
0
  6
ByLayer
 62
  256
370
   -1
100
AcDbLine
 10
134.0997574484084
 20
87.99383964871335
 11
136.3283272261862
 21
87.99383964871335
  0
LINE
  5
2A8
100
AcDbEntity
  8
0
  6
ByLayer
 62
  256
370
   -1
100
AcDbLine
 10
136.3283272261862
 20
87.99383964871335
 11
137.0711876706306
 21
87.74622142649112
  0
LINE
  5
2A9
100
AcDbEntity
  8
0
  6
ByLayer
 62
  256
370
   -1
100
AcDbLine
 10
137.0711876706306
 20
87.74622142649112
 11
137.3188058928528
 21
87.4986032042689
  0
LINE
  5
2AA
100
AcDbEntity
  8
0
  6
ByLayer
 62
  256
370
   -1
100
AcDbLine
 10
137.3188058928528
 20
87.4986032042689
 11
137.5664241150751
 21
87.00336098204667
  0
LINE
  5
2AB
100
AcDbEntity
  8
0
  6
ByLayer
 62
  256
370
   -1
100
AcDbLine
 10
137.5664241150751
 20
87.00336098204667
 11
137.5664241150751
 21
86.50812453760223
  0
LINE
  5
2AC
100
AcDbEntity
  8
0
  6
ByLayer
 62
  256
370
   -1
100
AcDbLine
 10
137.5664241150751
 20
86.50812453760223
 11
137.3188058928528
 21
86.0128880931578
  0
LINE
  5
2AD
100
AcDbEntity
  8
0
  6
ByLayer
 62
  256
370
   -1
100
AcDbLine
 10
137.3188058928528
 20
86.0128880931578
 11
137.0711876706306
 21
85.76526987093557
  0
LINE
  5
2AE
100
AcDbEntity
  8
0
  6
ByLayer
 62
  256
370
   -1
100
AcDbLine
 10
137.0711876706306
 20
85.76526987093557
 11
136.3283272261862
 21
85.51765164871335
  0
LINE
  5
2AF
100
AcDbEntity
  8
0
  6
ByLayer
 62
  256
370
   -1
100
AcDbLine
 10
134.0997574484084
 20
85.51765164871335
 11
136.3283272261862
 21
85.51765164871335
  0
LINE
  5
2B0
100
AcDbEntity
  8
0
  6
ByLayer
 62
  256
370
   -1
100
AcDbLine
 10
136.3283272261862
 20
85.51765164871335
 11
137.0711876706306
 21
85.27002764871334
  0
LINE
  5
2B1
100
AcDbEntity
  8
0
  6
ByLayer
 62
  256
370
   -1
100
AcDbLine
 10
137.0711876706306
 20
85.27002764871334
 11
137.3188058928528
 21
85.02240942649112
  0
LINE
  5
2B2
100
AcDbEntity
  8
0
  6
ByLayer
 62
  256
370
   -1
100
AcDbLine
 10
137.3188058928528
 20
85.02240942649112
 11
137.5664241150751
 21
84.52717298204668
  0
LINE
  5
2B3
100
AcDbEntity
  8
0
  6
ByLayer
 62
  256
370
   -1
100
AcDbLine
 10
137.5664241150751
 20
84.52717298204668
 11
137.5664241150751
 21
83.78431831538002
  0
LINE
  5
2B4
100
AcDbEntity
  8
0
  6
ByLayer
 62
  256
370
   -1
100
AcDbLine
 10
137.5664241150751
 20
83.78431831538002
 11
137.3188058928528
 21
83.28907782649112
  0
LINE
  5
2B5
100
AcDbEntity
  8
0
  6
ByLayer
 62
  256
370
   -1
100
AcDbLine
 10
137.3188058928528
 20
83.28907782649112
 11
137.0711876706306
 21
83.04145844871334
  0
LINE
  5
2B6
100
AcDbEntity
  8
0
  6
ByLayer
 62
  256
370
   -1
100
AcDbLine
 10
137.0711876706306
 20
83.04145844871334
 11
136.3283272261862
 21
82.79383964871334
  0
LINE
  5
2B7
100
AcDbEntity
  8
0
  6
ByLayer
 62
  256
370
   -1
100
AcDbLine
 10
136.3283272261862
 20
82.79383964871334
 11
134.0997574484084
 21
82.79383964871334
  0
LINE
  5
2B8
100
AcDbEntity
  8
0
  6
ByLayer
 62
  256
370
   -1
100
AcDbLine
 10
158.0568751680612
 20
86.75574275982446
 11
157.8092569458389
 21
87.25098498204667
  0
LINE
  5
2B9
100
AcDbEntity
  8
0
  6
ByLayer
 62
  256
370
   -1
100
AcDbLine
 10
157.8092569458389
 20
87.25098498204667
 11
157.3140205013945
 21
87.74622142649112
  0
LINE
  5
2BA
100
AcDbEntity
  8
0
  6
ByLayer
 62
  256
370
   -1
100
AcDbLine
 10
157.3140205013945
 20
87.74622142649112
 11
156.8187782791723
 21
87.99383964871335
  0
LINE
  5
2BB
100
AcDbEntity
  8
0
  6
ByLayer
 62
  256
370
   -1
100
AcDbLine
 10
156.8187782791723
 20
87.99383964871335
 11
155.8283053902834
 21
87.99383964871335
  0
LINE
  5
2BC
100
AcDbEntity
  8
0
  6
ByLayer
 62
  256
370
   -1
100
AcDbLine
 10
155.8283053902834
 20
87.99383964871335
 11
155.3330689458389
 21
87.74622142649112
  0
LINE
  5
2BD
100
AcDbEntity
  8
0
  6
ByLayer
 62
  256
370
   -1
100
AcDbLine
 10
155.3330689458389
 20
87.74622142649112
 11
154.8378284569501
 21
87.25098498204667
  0
LINE
  5
2BE
100
AcDbEntity
  8
0
  6
ByLayer
 62
  256
370
   -1
100
AcDbLine
 10
154.8378284569501
 20
87.25098498204667
 11
154.5902090791723
 21
86.75574275982446
  0
LINE
  5
2BF
100
AcDbEntity
  8
0
  6
ByLayer
 62
  256
370
   -1
100
AcDbLine
 10
154.5902090791723
 20
86.75574275982446
 11
154.3425902791723
 21
86.0128880931578
  0
LINE
  5
2C0
100
AcDbEntity
  8
0
  6
ByLayer
 62
  256
370
   -1
100
AcDbLine
 10
154.3425902791723
 20
86.0128880931578
 11
154.3425902791723
 21
84.77479120426889
  0
LINE
  5
2C1
100
AcDbEntity
  8
0
  6
ByLayer
 62
  256
370
   -1
100
AcDbLine
 10
154.3425902791723
 20
84.77479120426889
 11
154.5902090791723
 21
84.03193653760223
  0
LINE
  5
2C2
100
AcDbEntity
  8
0
  6
ByLayer
 62
  256
370
   -1
100
AcDbLine
 10
154.5902090791723
 20
84.03193653760223
 11
154.8378284569501
 21
83.53669431538
  0
LINE
  5
2C3
100
AcDbEntity
  8
0
  6
ByLayer
 62
  256
370
   -1
100
AcDbLine
 10
154.8378284569501
 20
83.53669431538
 11
155.3330689458389
 21
83.04145844871334
  0
LINE
  5
2C4
100
AcDbEntity
  8
0
  6
ByLayer
 62
  256
370
   -1
100
AcDbLine
 10
155.3330689458389
 20
83.04145844871334
 11
155.8283053902834
 21
82.79383964871334
  0
LINE
  5
2C5
100
AcDbEntity
  8
0
  6
ByLayer
 62
  256
370
   -1
100
AcDbLine
 10
155.8283053902834
 20
82.79383964871334
 11
156.8187782791723
 21
82.79383964871334
  0
LINE
  5
2C6
100
AcDbEntity
  8
0
  6
ByLayer
 62
  256
370
   -1
100
AcDbLine
 10
156.8187782791723
 20
82.79383964871334
 11
157.3140205013945
 21
83.04145844871334
  0
LINE
  5
2C7
100
AcDbEntity
  8
0
  6
ByLayer
 62
  256
370
   -1
100
AcDbLine
 10
157.3140205013945
 20
83.04145844871334
 11
157.8092569458389
 21
83.53669431538
  0
LINE
  5
2C8
100
AcDbEntity
  8
0
  6
ByLayer
 62
  256
370
   -1
100
AcDbLine
 10
157.8092569458389
 20
83.53669431538
 11
158.0568751680612
 21
84.03193653760223
  0
LINE
  5
2C9
100
AcDbEntity
  8
0
  6
ByLayer
 62
  256
370
   -1
100
AcDbLine
 10
158.0568751680612
 20
84.03193653760223
 11
158.0568751680612
 21
84.77479120426889
  0
LINE
  5
2CA
100
AcDbEntity
  8
0
  6
ByLayer
 62
  256
370
   -1
100
AcDbLine
 10
156.8187782791723
 20
84.77479120426889
 11
158.0568751680612
 21
84.77479120426889
  0
LINE
  5
2CB
100
AcDbEntity
  8
0
  6
ByLayer
 62
  256
370
   -1
100
AcDbLine
 10
159.7902085013945
 20
87.00336098204667
 11
160.2854466791723
 21
87.25098498204667
  0
LINE
  5
2CC
100
AcDbEntity
  8
0
  6
ByLayer
 62
  256
370
   -1
100
AcDbLine
 10
160.2854466791723
 20
87.25098498204667
 11
161.0283053902834
 21
87.99383964871335
  0
LINE
  5
2CD
100
AcDbEntity
  8
0
  6
ByLayer
 62
  256
370
   -1
100
AcDbLine
 10
161.0283053902834
 20
87.99383964871335
 11
161.0283053902834
 21
82.79383964871334
  0
LINE
  5
2CE
100
AcDbEntity
  8
0
  6
ByLayer
 62
  256
370
   -1
100
AcDbLine
 10
180.890974492125
 20
87.99383964871335
 11
182.8719260476805
 21
85.51765164871335
  0
LINE
  5
2CF
100
AcDbEntity
  8
0
  6
ByLayer
 62
  256
370
   -1
100
AcDbLine
 10
182.8719260476805
 20
85.51765164871335
 11
182.8719260476805
 21
82.79383964871334
  0
LINE
  5
2D0
100
AcDbEntity
  8
0
  6
ByLayer
 62
  256
370
   -1
100
AcDbLine
 10
184.8528776032361
 20
87.99383964871335
 11
182.8719260476805
 21
85.51765164871335
  0
LINE
  5
2D1
100
AcDbEntity
  8
0
  6
ByLayer
 62
  256
370
   -1
100
AcDbLine
 10
190.0528776032361
 20
87.99383964871335
 11
187.5766896032361
 21
82.79383964871334
  0
LINE
  5
2D2
100
AcDbEntity
  8
0
  6
ByLayer
 62
  256
370
   -1
100
AcDbLine
 10
186.5862109365694
 20
87.99383964871335
 11
190.0528776032361
 21
87.99383964871335
  0
CIRCLE
  5
2D3
100
AcDbEntity
  8
0
  6
ByLayer
 62
  256
370
   -1
100
AcDbCircle
 10
117.3286286223183
 20
134.2139833333334
 40
2
  0
CIRCLE
  5
2D4
100
AcDbEntity
  8
0
  6
ByLayer
 62
  256
370
   -1
100
AcDbCircle
 10
144.1599571937469
 20
134.2139833333334
 40
2
  0
LINE
  5
2D5
100
AcDbEntity
  8
0
  6
ByLayer
 62
  256
370
   -1
100
AcDbLine
 10
111.3286286223183
 20
137.2139833333333
 11
111.3286286223183
 21
136.2139833333333
  0
ARC
  5
2D6
100
AcDbEntity
  8
0
  6
ByLayer
 62
  256
370
   -1
100
AcDbCircle
 10
116.3286286223183
 20
137.2139833333333
 40
5
100
AcDbArc
 50
90
 51
180.0000000000003
  0
LINE
  5
2D7
100
AcDbEntity
  8
0
  6
ByLayer
 62
  256
370
   -1
100
AcDbLine
 10
176.9912857651755
 20
137.2139833333333
 11
176.9912857651755
 21
136.2139833333333
  0
LINE
  5
2D8
100
AcDbEntity
  8
0
  6
ByLayer
 62
  256
370
   -1
100
AcDbLine
 10
171.9912857651755
 20
142.2139833333333
 11
116.3286286223183
 21
142.2139833333333
  0
ARC
  5
2D9
100
AcDbEntity
  8
0
  6
ByLayer
 62
  256
370
   -1
100
AcDbCircle
 10
171.9912857651755
 20
137.2139833333333
 40
5
100
AcDbArc
 50
359.9999999999997
 51
90
  0
LINE
  5
2DA
100
AcDbEntity
  8
0
  6
ByLayer
 62
  256
370
   -1
100
AcDbLine
 10
176.9912857651755
 20
136.2139833333333
 11
111.3286286223183
 21
136.2139833333333
  0
LINE
  5
2DB
100
AcDbEntity
  8
0
  6
ByLayer
 62
  256
370
   -1
100
AcDbLine
 10
170.9912857651755
 20
136.2139833333333
 11
170.9912857651755
 21
128.3696166666667
  0
LINE
  5
2DC
100
AcDbEntity
  8
0
  6
ByLayer
 62
  256
370
   -1
100
AcDbLine
 10
144.1599571937469
 20
132.2139833333296
 11
144.1599571937469
 21
128.3696166666667
  0
LINE
  5
2DD
100
AcDbEntity
  8
0
  6
ByLayer
 62
  256
370
   -1
100
AcDbLine
 10
117.3286286223183
 20
132.2139833333317
 11
117.3286286223184
 21
128.3696166666667
  0
LINE
  5
2DE
100
AcDbEntity
  8
0
  6
ByLayer
 62
  256
370
   -1
100
AcDbLine
 10
94.49730005088976
 20
142.7139833333333
 11
32.83464290803259
 21
142.7139833333333
  0
LINE
  5
2DF
100
AcDbEntity
  8
0
  6
ByLayer
 62
  256
370
   -1
100
AcDbLine
 10
94.49730005088976
 20
142.7139833333333
 11
94.49730005088975
 21
138.7139833333333
  0
LINE
  5
2E0
100
AcDbEntity
  8
0
  6
ByLayer
 62
  256
370
   -1
100
AcDbLine
 10
32.83464290803259
 20
142.7139833333333
 11
32.83464290803259
 21
138.7139833333333
  0
LINE
  5
2E1
100
AcDbEntity
  8
0
  6
ByLayer
 62
  256
370
   -1
100
AcDbLine
 10
32.83464290803259
 20
138.7139833333333
 11
23.41897862231833
 21
138.7139833333333
  0
LINE
  5
2E2
100
AcDbEntity
  8
0
  6
ByLayer
 62
  256
370
   -1
100
AcDbLine
 10
111.5589326152324
 20
138.7139833333333
 11
94.49730005088975
 21
138.7139833333333
  0
LINE
  5
2E3
100
AcDbEntity
  8
0
  6
ByLayer
 62
  256
370
   -1
100
AcDbLine
 10
90.49730005088976
 20
142.7139833333333
 11
90.49730005088976
 21
128.3696166666667
  0
LINE
  5
2E4
100
AcDbEntity
  8
0
  6
ByLayer
 62
  256
370
   -1
100
AcDbLine
 10
63.66597147946116
 20
142.7139833333333
 11
63.66597147946116
 21
128.3696166666667
  0
LINE
  5
2E5
100
AcDbEntity
  8
0
  6
ByLayer
 62
  256
370
   -1
100
AcDbLine
 10
36.83464290803259
 20
142.7139833333333
 11
36.83464290803259
 21
128.3696166666667
  0
LINE
  5
2E6
100
AcDbEntity
  8
0
  6
ByLayer
 62
  256
370
   -1
100
AcDbLine
 10
193.822614336604
 20
138.7139833333333
 11
193.822614336604
 21
134.7139833333333
  0
LINE
  5
2E7
100
AcDbEntity
  8
0
  6
ByLayer
 62
  256
370
   -1
100
AcDbLine
 10
201.822614336604
 20
138.7139833333333
 11
201.822614336604
 21
134.7139833333333
  0
LINE
  5
2E8
100
AcDbEntity
  8
0
  6
ByLayer
 62
  256
370
   -1
100
AcDbLine
 10
201.822614336604
 20
134.7139833333333
 11
193.822614336604
 21
134.7139833333333
  0
CIRCLE
  5
2E9
100
AcDbEntity
  8
0
  6
ByLayer
 62
  256
370
   -1
100
AcDbCircle
 10
197.8226101032022
 20
132.7139833333435
 40
2
  0
LINE
  5
2EA
100
AcDbEntity
  8
0
  6
ByLayer
 62
  256
370
   -1
100
AcDbLine
 10
197.8226101032022
 20
128.3696125176238
 11
185.5786286223183
 21
116.3696166666667
  0
LINE
  5
2EB
100
AcDbEntity
  8
0
  6
ByLayer
 62
  256
370
   -1
100
AcDbLine
 10
197.8226101032022
 20
130.7139833333435
 11
197.8226101032022
 21
128.3696125176238
  0
LINE
  5
2EC
100
AcDbEntity
  8
0
  6
ByLayer
 62
  256
370
   -1
100
AcDbLine
 10
193.822614336604
 20
138.7139833333333
 11
176.7609817722615
 21
138.7139833333333
  0
LINE
  5
2ED
100
AcDbEntity
  8
0
  6
ByLayer
 62
  256
370
   -1
100
AcDbLine
 10
211.2382786223183
 20
138.7139833333333
 11
201.822614336604
 21
138.7139833333333
  0
LINE
  5
2EE
100
AcDbEntity
  8
0
  6
ByLayer
 62
  256
370
   -1
100
AcDbLine
 10
201.822614336604
 20
171.4027666666667
 11
201.822614336604
 21
175.4027666666667
  0
LINE
  5
2EF
100
AcDbEntity
  8
0
  6
ByLayer
 62
  256
370
   -1
100
AcDbLine
 10
23.41897862231833
 20
171.4027666666667
 11
32.83464290803262
 21
171.4027666666667
  0
LINE
  5
2F0
100
AcDbEntity
  8
0
  6
ByLayer
 62
  256
370
   -1
100
AcDbLine
 10
32.83464290803262
 20
175.4027666666667
 11
201.822614336604
 21
175.4027666666667
  0
LINE
  5
2F1
100
AcDbEntity
  8
0
  6
ByLayer
 62
  256
370
   -1
100
AcDbLine
 10
32.83464290803262
 20
171.4027666666667
 11
32.83464290803262
 21
175.4027666666667
  0
LINE
  5
2F2
100
AcDbEntity
  8
0
  6
ByLayer
 62
  256
370
   -1
100
AcDbLine
 10
201.822614336604
 20
171.4027666666667
 11
211.2382786223183
 21
171.4027666666667
  0
CIRCLE
  5
2F3
100
AcDbEntity
  8
0
  6
ByLayer
 62
  256
370
   -1
100
AcDbCircle
 10
36.83464290803262
 20
177.4027666666667
 40
2
  0
CIRCLE
  5
2F4
100
AcDbEntity
  8
0
  6
ByLayer
 62
  256
370
   -1
100
AcDbCircle
 10
63.66597147946119
 20
177.4027666666667
 40
2
  0
CIRCLE
  5
2F5
100
AcDbEntity
  8
0
  6
ByLayer
 62
  256
370
   -1
100
AcDbCircle
 10
90.49730005088976
 20
177.4027666666667
 40
2
  0
CIRCLE
  5
2F6
100
AcDbEntity
  8
0
  6
ByLayer
 62
  256
370
   -1
100
AcDbCircle
 10
117.3286286223183
 20
177.4027666666667
 40
2
  0
CIRCLE
  5
2F7
100
AcDbEntity
  8
0
  6
ByLayer
 62
  256
370
   -1
100
AcDbCircle
 10
144.1599571937469
 20
177.4027666666667
 40
2
  0
CIRCLE
  5
2F8
100
AcDbEntity
  8
0
  6
ByLayer
 62
  256
370
   -1
100
AcDbCircle
 10
170.9912857651755
 20
177.4027666666667
 40
2
  0
CIRCLE
  5
2F9
100
AcDbEntity
  8
0
  6
ByLayer
 62
  256
370
   -1
100
AcDbCircle
 10
197.822614336604
 20
177.4027666666667
 40
2
  0
LINE
  5
2FA
100
AcDbEntity
  8
0
  6
ByLayer
 62
  256
370
   -1
100
AcDbLine
 10
36.83464290803261
 20
181.7471333333333
 11
49.07862862231832
 21
193.7471333333333
  0
LINE
  5
2FB
100
AcDbEntity
  8
0
  6
ByLayer
 62
  256
370
   -1
100
AcDbLine
 10
36.83464290803262
 20
179.4027666666667
 11
36.83464290803261
 21
181.7471333333333
  0
LINE
  5
2FC
100
AcDbEntity
  8
0
  6
ByLayer
 62
  256
370
   -1
100
AcDbLine
 10
63.66597147946117
 20
181.7471333333333
 11
76.37862862231833
 21
193.7471333333333
  0
LINE
  5
2FD
100
AcDbEntity
  8
0
  6
ByLayer
 62
  256
370
   -1
100
AcDbLine
 10
63.66597147946119
 20
179.4027666666667
 11
63.66597147946117
 21
181.7471333333333
  0
LINE
  5
2FE
100
AcDbEntity
  8
0
  6
ByLayer
 62
  256
370
   -1
100
AcDbLine
 10
90.49730005088975
 20
181.7471333333333
 11
103.6786286223183
 21
193.7471333333333
  0
LINE
  5
2FF
100
AcDbEntity
  8
0
  6
ByLayer
 62
  256
370
   -1
100
AcDbLine
 10
90.49730005088976
 20
179.4027666666667
 11
90.49730005088975
 21
181.7471333333333
  0
LINE
  5
300
100
AcDbEntity
  8
0
  6
ByLayer
 62
  256
370
   -1
100
AcDbLine
 10
117.3286286223183
 20
181.7471333333333
 11
130.9786286223183
 21
193.7471333333333
  0
LINE
  5
301
100
AcDbEntity
  8
0
  6
ByLayer
 62
  256
370
   -1
100
AcDbLine
 10
117.3286286223183
 20
179.4027666666667
 11
117.3286286223183
 21
181.7471333333333
  0
LINE
  5
302
100
AcDbEntity
  8
0
  6
ByLayer
 62
  256
370
   -1
100
AcDbLine
 10
144.1599571937469
 20
181.7471333333333
 11
158.2786286223183
 21
193.7471333333333
  0
LINE
  5
303
100
AcDbEntity
  8
0
  6
ByLayer
 62
  256
370
   -1
100
AcDbLine
 10
144.1599571937469
 20
179.4027666666667
 11
144.1599571937469
 21
181.7471333333333
  0
LINE
  5
304
100
AcDbEntity
  8
0
  6
ByLayer
 62
  256
370
   -1
100
AcDbLine
 10
170.9912857651755
 20
181.7471333333333
 11
185.5786286223183
 21
193.7471333333333
  0
LINE
  5
305
100
AcDbEntity
  8
0
  6
ByLayer
 62
  256
370
   -1
100
AcDbLine
 10
170.9912857651755
 20
179.4027666666667
 11
170.9912857651755
 21
181.7471333333333
  0
LINE
  5
306
100
AcDbEntity
  8
0
  6
ByLayer
 62
  256
370
   -1
100
AcDbLine
 10
197.8226143366041
 20
181.7471333333333
 11
212.8786286223182
 21
193.7471333333333
  0
LINE
  5
307
100
AcDbEntity
  8
0
  6
ByLayer
 62
  256
370
   -1
100
AcDbLine
 10
197.822614336604
 20
179.4027666666667
 11
197.8226143366041
 21
181.7471333333333
  0
ENDSEC
  0
SECTION
  2
OBJECTS
  0
DICTIONARY
  5
C
330
0
100
AcDbDictionary
281
    1
  3
ACAD_GROUP
350
D
  0
DICTIONARY
  5
D
330
C
100
AcDbDictionary
281
    1
  0
ENDSEC
  0
EOF
